<?xml version="1.0" standalone="no"?>
<!DOCTYPE svg PUBLIC "-//W3C//DTD SVG 1.1//EN" "http://www.w3.org/Graphics/SVG/1.1/DTD/svg11.dtd" >
<svg xmlns="http://www.w3.org/2000/svg" xmlns:xlink="http://www.w3.org/1999/xlink" version="1.1">
<metadata></metadata>
<defs>
<font id="stag_sans_mediummediumitalic" horiz-adv-x="1165" >
<font-face units-per-em="2048" ascent="1638" descent="-410" />
<missing-glyph horiz-adv-x="389" />
<glyph horiz-adv-x="0" />
<glyph horiz-adv-x="682" />
<glyph unicode=" "  horiz-adv-x="389" />
<glyph unicode="&#x09;" horiz-adv-x="389" />
<glyph unicode="&#xa0;" horiz-adv-x="389" />
<glyph unicode="!" horiz-adv-x="540" d="M12 147q0 71 53 120.5t125 49.5q71 0 116.5 -46.5t45.5 -112.5q0 -72 -54 -121t-126 -49q-70 0 -115 46t-45 113zM141 422l138 835l40 177h320l-41 -177l-268 -835h-189z" />
<glyph unicode="&#x22;" horiz-adv-x="755" d="M207 975l22 309l35 150h279l-35 -150l-125 -309h-176zM578 975l22 309l35 150h278l-34 -150l-125 -309h-176z" />
<glyph unicode="#" horiz-adv-x="1032" d="M23 410l51 223h166l57 217h-158l54 223h165l97 361h202l-96 -361h187l96 361h203l-97 -361h160l-53 -223h-168l-58 -217h160l-51 -223h-172l-111 -410h-202l110 410h-186l-111 -410h-202l110 410h-153zM442 633h187l57 217h-186z" />
<glyph unicode="$" horiz-adv-x="1073" d="M-14 143l47 207h106q82 -110 213 -141l97 418q-144 59 -219.5 149.5t-75.5 229.5q0 203 141.5 322.5t366.5 121.5l26 115h182l-30 -133q148 -29 260 -117l-45 -193h-105q-76 79 -159 103l-93 -400q73 -30 125.5 -61t99.5 -76t71 -106.5t24 -139.5q0 -212 -145.5 -332.5 t-391.5 -125.5l-43 -193h-182l47 207q-191 33 -317 145zM420 1044q0 -52 25.5 -85t86.5 -64l80 344q-81 -12 -136.5 -61t-55.5 -134zM532 203q90 15 144.5 66t54.5 143q0 52 -27 84t-90 63z" />
<glyph unicode="%" horiz-adv-x="1679" d="M123 -70l1288 1563h223l-1288 -1563h-223zM133 989q0 121 53 226t150.5 170t216.5 65q142 0 229.5 -84.5t87.5 -224.5q0 -118 -53 -222.5t-150.5 -169.5t-215.5 -65q-141 0 -229.5 85t-88.5 220zM362 983q0 -128 107 -131q43 -1 77.5 29t54 76.5t30 96t10.5 93.5 q0 135 -104 135q-57 0 -99 -53t-59 -118.5t-17 -127.5zM893 287q0 121 53 226.5t150.5 171t216.5 65.5q142 0 228.5 -85t86.5 -225q0 -118 -52.5 -222t-150 -169t-215.5 -65q-141 0 -229 84t-88 219zM1122 283q0 -131 107 -131q43 0 77.5 30t54 76t30 95t10.5 93 q0 59 -24.5 97.5t-80.5 38.5t-98 -53t-59 -119t-17 -127z" />
<glyph unicode="&#x26;" horiz-adv-x="1392" d="M18 383q0 151 105.5 270t275.5 176q-32 85 -32 170q0 195 139 323t377 128q195 0 323 -84l-45 -229h-110q-73 80 -181 80q-89 0 -144.5 -54.5t-55.5 -146.5q0 -46 17.5 -89.5t62.5 -105.5l225 -309q115 208 137 336h250v-66q-66 -234 -242 -469l164 -231l6 -82h-309 l-80 111q-94 -65 -186.5 -97t-218.5 -32q-95 0 -179 23t-152 70t-107.5 126t-39.5 182zM340 412q0 -96 62 -150.5t163 -54.5q120 0 211 72l-287 391q-149 -84 -149 -258z" />
<glyph unicode="'" horiz-adv-x="385" d="M209 975l20 309l35 150h279l-35 -150l-123 -309h-176z" />
<glyph unicode="(" horiz-adv-x="690" d="M88 522q0 168 49 328.5t138 295t224 233t298 139.5h82l-50 -205q-206 -75 -334 -295t-128 -502q0 -333 182 -420l-45 -196h-64q-73 29 -134 79.5t-111 125.5t-78.5 182t-28.5 235z" />
<glyph unicode=")" horiz-adv-x="690" d="M-100 -100l49 204q206 75 334.5 295t128.5 502q0 332 -183 420l45 197h64q73 -29 134 -80t111 -126t78.5 -182t28.5 -235q0 -168 -48.5 -328.5t-137.5 -294.5t-224 -232.5t-298 -139.5h-82z" />
<glyph unicode="*" horiz-adv-x="782" d="M168 1124l108 205l84 -37l111 -106l-14 153l22 95h232l-27 -111l-80 -152l148 78l92 19l26 -219l-96 -19l-151 17l106 -107l37 -80l-213 -106l-39 82l-20 157l-99 -157l-71 -70l-148 160l74 67l147 76l-145 18z" />
<glyph unicode="+" horiz-adv-x="1042" d="M45 590l55 235h365l88 385h250l-88 -385h362l-55 -235h-363l-88 -385h-249l88 385h-365z" />
<glyph unicode="," horiz-adv-x="417" d="M-133 -225l29 131q67 6 110 31t43 57q0 10 -3.5 17t-7 10t-16 10.5t-18.5 11.5q-51 36 -51 102q0 75 50.5 123.5t121.5 48.5t119.5 -47.5t48.5 -122.5q0 -171 -115 -267t-311 -105z" />
<glyph unicode="-" horiz-adv-x="579" d="M43 487l57 244h473l-57 -244h-473z" />
<glyph unicode="." horiz-adv-x="415" d="M-45 147q0 71 53 120.5t125 49.5q71 0 116.5 -46.5t45.5 -112.5q0 -72 -54 -121t-126 -49q-70 0 -115 46t-45 113z" />
<glyph unicode="/" horiz-adv-x="720" d="M-109 -39l799 1557h223v-62l-800 -1556h-222v61z" />
<glyph unicode="0" horiz-adv-x="1368" d="M90 522q0 136 31 269t94.5 252t151.5 209.5t211.5 144t265.5 53.5q242 0 382 -148.5t140 -398.5q0 -136 -30.5 -268t-93 -249.5t-149.5 -207t-210 -142t-265 -52.5q-242 0 -385 146.5t-143 391.5zM408 518q0 -150 51 -230.5t180 -80.5q85 0 157 51.5t117 130t77 175.5 t45.5 185t13.5 162q0 70 -10.5 124t-34.5 98.5t-68.5 68t-106.5 23.5q-63 0 -119.5 -27.5t-98.5 -74t-76.5 -107.5t-57.5 -127t-39 -134.5t-23 -128t-7 -108.5z" />
<glyph unicode="1" horiz-adv-x="778" d="M147 999l52 222l407 213h213l-330 -1434h-319l250 1090l-191 -91h-82z" />
<glyph unicode="2" horiz-adv-x="1095" d="M-78 0l58 252l495 377q69 53 121 98.5t102.5 102t77.5 114.5t27 115q0 77 -47 115t-146 38q-146 0 -311 -96h-100l53 232q183 102 412 102q99 0 181 -22.5t145.5 -67t98.5 -119t35 -172.5q0 -84 -30 -159.5t-94.5 -148.5t-137.5 -134.5t-186 -143.5l-324 -233h617 l-58 -250h-989z" />
<glyph unicode="3" horiz-adv-x="1069" d="M-29 137l49 211h115q44 -62 118.5 -97.5t160.5 -37.5q117 -2 190.5 53.5t73.5 155.5q0 196 -229 196h-97l51 224h123q117 0 191 53t74 160q0 87 -52.5 127.5t-132.5 42.5q-144 3 -274 -82h-117l49 215q167 94 387 94q66 0 125.5 -10.5t117 -37t99 -67.5t67 -106.5 t25.5 -149.5q0 -142 -86 -235t-231 -125v-8q100 -27 158.5 -105.5t58.5 -191.5q0 -132 -76 -231.5t-202 -150t-283 -50.5q-290 0 -453 153z" />
<glyph unicode="4" horiz-adv-x="1214" d="M4 303l62 266l847 865h304l-209 -908h172l-52 -223h-172l-69 -303h-314l70 303h-639zM301 526h393l121 525h-8l-506 -516v-9z" />
<glyph unicode="5" horiz-adv-x="1116" d="M-16 121l49 209h121q88 -119 268 -119q129 0 220 81t91 216q0 88 -52.5 136t-133.5 48q-138 0 -230 -96h-182l193 838h846l-58 -250h-616l-78 -334h6q93 70 238 70q174 0 281.5 -104t107.5 -290q0 -126 -50 -229.5t-136 -171t-199.5 -104.5t-241.5 -37q-290 0 -444 137z " />
<glyph unicode="6" horiz-adv-x="1243" d="M90 494q0 157 42 314.5t124 283.5q109 167 275 261.5t380 94.5q227 0 361 -94l-51 -211h-117q-73 80 -203 80t-219.5 -57.5t-153.5 -164.5q-58 -94 -86 -215q148 121 338 121q174 0 284 -103t110 -296q0 -106 -41 -201.5t-114.5 -167t-182.5 -113.5t-238 -42 q-233 0 -370.5 133.5t-137.5 376.5zM403 467q0 -84 17 -142.5t64.5 -96.5t125.5 -38q117 0 187.5 86.5t70.5 225.5q0 92 -51 143t-153 51q-66 0 -133.5 -22.5t-118.5 -55.5q-9 -77 -9 -151z" />
<glyph unicode="7" horiz-adv-x="1069" d="M137 0v125l781 1051v8h-721l57 250h969l-64 -273l-706 -1161h-316z" />
<glyph unicode="8" horiz-adv-x="1220" d="M23 371q0 111 50.5 196t129 133t182.5 72v8q-75 37 -118.5 103t-43.5 143q0 132 72.5 229.5t192 146t268.5 48.5q216 0 342.5 -99t126.5 -268q0 -135 -78 -217t-207 -114v-9q97 -41 152 -118.5t55 -184.5q0 -216 -162.5 -337t-433.5 -121q-71 0 -138.5 10t-140 37 t-126 68.5t-88.5 112.5t-35 161zM332 389q0 -93 65.5 -146t161.5 -53q130 0 204.5 74.5t74.5 186.5q0 95 -56.5 153t-169.5 58q-129 0 -204.5 -77.5t-75.5 -195.5zM524 1022q0 -77 53.5 -118.5t129.5 -41.5q95 0 157 54.5t62 152.5q0 76 -49 121t-134 45q-96 0 -157.5 -56.5 t-61.5 -156.5z" />
<glyph unicode="9" horiz-adv-x="1243" d="M37 74l49 207h117q77 -74 213 -74q108 0 197 38.5t147 108.5q90 109 129 279q-140 -111 -346 -111q-179 0 -286 98t-107 271q0 117 44.5 220t121.5 176.5t186 116t233 42.5q226 0 365 -132t139 -364q0 -424 -213 -696q-217 -272 -618 -272q-223 0 -371 92zM446 922 q0 -185 211 -185q66 0 139 19.5t122 48.5q8 73 8 172q0 117 -48 189.5t-153 72.5q-123 0 -201 -86.5t-78 -230.5z" />
<glyph unicode=":" horiz-adv-x="415" d="M-49 147q0 71 53 120.5t125 49.5q71 0 116.5 -46.5t45.5 -112.5q0 -72 -54 -121t-126 -49q-70 0 -115 46t-45 113zM86 741q0 71 53 120.5t125 49.5q71 0 116.5 -46.5t45.5 -112.5q0 -72 -54 -121t-126 -49q-70 0 -115 46t-45 113z" />
<glyph unicode=";" horiz-adv-x="415" d="M-137 -225l28 131q67 6 110.5 31t43.5 57q0 10 -3.5 17t-7 10t-16 10.5t-18.5 11.5q-51 36 -51 102q0 75 51.5 123.5t122.5 48.5q70 0 118 -47.5t48 -122.5q0 -171 -115 -267t-311 -105zM86 741q0 71 53 120.5t125 49.5q71 0 116.5 -46.5t45.5 -112.5q0 -72 -54 -121 t-126 -49q-70 0 -115 46t-45 113z" />
<glyph unicode="&#x3c;" horiz-adv-x="892" d="M45 582l45 198l840 389h69l-55 -233l-579 -266v-6l454 -271l-49 -213h-70z" />
<glyph unicode="=" horiz-adv-x="997" d="M-10 311l55 236h916l-56 -236h-915zM90 741l53 236h916l-53 -236h-916z" />
<glyph unicode="&#x3e;" horiz-adv-x="892" d="M-41 180l53 234l580 266v6l-453 270l49 213h70l655 -401l-45 -199l-839 -389h-70z" />
<glyph unicode="?" horiz-adv-x="919" d="M117 147q0 71 53 120.5t125 49.5q71 0 116.5 -46.5t45.5 -112.5q0 -72 -54.5 -121t-126.5 -49q-69 0 -114 46t-45 113zM184 1147l52 223q141 82 342 82q84 0 155 -17.5t130.5 -55t93.5 -104.5t34 -159q0 -235 -293 -407q-65 -38 -101 -62.5t-73.5 -59t-57.5 -74.5 t-28 -91h-213q11 137 54 221t165 176q13 10 49 35.5t54.5 39.5t47.5 40.5t43.5 48t26 52t11.5 61.5q0 62 -41 92.5t-111 30.5q-119 0 -223 -72h-117z" />
<glyph unicode="@" horiz-adv-x="1775" d="M51 477q0 164 54.5 309t146 249.5t210 180t248.5 113t259 37.5q130 0 247 -27.5t215 -83.5t169 -135t111 -188t40 -236q0 -139 -41 -248.5t-111 -176.5t-158 -101.5t-188 -34.5q-222 0 -270 129q-108 -129 -266 -129q-120 0 -189 75t-69 218q0 73 19.5 145.5t58.5 138.5 t93 117t129 81t159 30q74 0 121 -21t87 -61q29 36 63.5 53t84.5 17h94l-113 -498q-14 -50 -0.5 -83.5t62.5 -33.5q101 0 161 96.5t60 286.5q0 231 -151 359.5t-418 128.5q-104 0 -203 -28t-187.5 -86t-155 -140t-105.5 -199t-39 -254q0 -122 30 -218.5t83.5 -161.5t131 -108 t167.5 -62t198 -19q290 0 524 137h72l-43 -190q-219 -129 -553 -129q-132 0 -252 26t-228 84t-186.5 144t-125 213.5t-46.5 283.5zM723 428q0 -106 86 -106q93 0 166 79l78 334q-49 17 -99 17q-101 0 -166 -96t-65 -228z" />
<glyph unicode="A" horiz-adv-x="1361" d="M-70 0v84l762 1350h342l178 -1350v-84h-313l-41 379h-477l-199 -379h-252zM496 598h338l-56 528h-4z" />
<glyph unicode="B" horiz-adv-x="1245" d="M8 0l330 1434h422q224 0 348.5 -90.5t124.5 -260.5q0 -139 -81.5 -223.5t-225.5 -118.5v-8q233 -51 233 -284q0 -92 -31.5 -167t-86.5 -126.5t-131.5 -87t-164.5 -52t-188 -16.5h-549zM373 225h205q122 0 193 59t71 179q0 84 -50.5 131t-146.5 47h-176zM520 852h154 q252 0 252 205q0 71 -47 111t-140 40h-139z" />
<glyph unicode="C" horiz-adv-x="1263" d="M92 561q0 134 34 262.5t103.5 241.5t166 199t230 136t287.5 50q248 0 398 -102l-49 -213h-113q-94 84 -250 84q-102 0 -186 -43.5t-137.5 -112.5t-90 -158.5t-52 -176.5t-15.5 -171q0 -348 313 -348q151 0 285 92h121l-54 -231q-150 -86 -368 -86q-139 0 -251.5 35 t-196.5 104t-129.5 180.5t-45.5 257.5z" />
<glyph unicode="D" horiz-adv-x="1417" d="M8 0l330 1434h440q294 0 457.5 -152.5t163.5 -433.5q0 -130 -31.5 -252t-97 -230.5t-158.5 -189.5t-225.5 -128.5t-288.5 -47.5h-590zM379 225h209q91 0 166.5 28t126.5 76.5t89.5 109.5t59.5 133t31 140t10 136q0 356 -299 356h-168z" />
<glyph unicode="E" horiz-adv-x="1153" d="M8 0l330 1434h913l-53 -232h-594l-84 -364h438l-51 -220h-438l-90 -393h641l-51 -225h-961z" />
<glyph unicode="F" horiz-adv-x="1116" d="M8 0l330 1434h932l-53 -232h-613l-92 -395h483l-49 -219h-483l-135 -588h-320z" />
<glyph unicode="G" horiz-adv-x="1368" d="M92 547q0 138 34 268.5t103 246t166 202t232.5 136.5t292.5 50q258 0 421 -107l-51 -219h-108q-106 95 -283 95q-101 0 -184 -43t-137.5 -112t-92 -159.5t-53.5 -182t-16 -183.5q0 -164 76 -250t243 -86q81 0 139 18l74 320h-198l47 207h512l-154 -670 q-69 -41 -183.5 -67.5t-250.5 -26.5t-248 33t-198.5 99t-134.5 176t-48 255z" />
<glyph unicode="H" horiz-adv-x="1419" d="M8 0l330 1434h319l-135 -590h527l135 590h319l-329 -1434h-320l143 618h-528l-141 -618h-320z" />
<glyph unicode="I" horiz-adv-x="587" d="M14 0l330 1434h322l-330 -1434h-322z" />
<glyph unicode="J" horiz-adv-x="935" d="M-57 78l49 213h104q62 -78 178 -78q82 0 127 41.5t64 126.5l242 1053h321l-254 -1100q-39 -165 -158 -257.5t-327 -92.5q-214 0 -346 94z" />
<glyph unicode="K" horiz-adv-x="1337" d="M8 0l330 1434h319l-151 -660l651 660h270v-86l-532 -519l301 -743v-86h-299l-244 614l-235 -225l-90 -389h-320z" />
<glyph unicode="L" horiz-adv-x="1093" d="M8 0l330 1434h319l-278 -1209h577l-51 -225h-897z" />
<glyph unicode="M" horiz-adv-x="1710" d="M8 0l330 1434h416l80 -953h6l514 953h440l-330 -1434h-315l250 1085h-6l-592 -1085h-193l-86 1085h-6l-250 -1085h-258z" />
<glyph unicode="N" horiz-adv-x="1404" d="M8 0l330 1434h362l301 -918h7l213 918h268l-330 -1434h-291l-348 1042h-6l-240 -1042h-266z" />
<glyph unicode="O" horiz-adv-x="1495" d="M92 590q0 134 34 260.5t101 235t158.5 190t214 128t260.5 46.5q186 0 326.5 -76.5t215.5 -214t75 -315.5q0 -129 -32 -253t-97.5 -234t-155.5 -193t-215.5 -131.5t-269.5 -48.5q-282 0 -448.5 167t-166.5 439zM418 582q0 -82 16.5 -148.5t51 -118.5t93.5 -81t138 -29 q88 0 162 42t123 109t83.5 153t50 172.5t15.5 168.5q0 76 -15 140t-47.5 120t-92.5 87.5t-142 31.5q-89 0 -163.5 -43t-124 -111.5t-84 -155.5t-49.5 -172t-15 -165z" />
<glyph unicode="P" horiz-adv-x="1220" d="M8 0l330 1434h424q248 0 374 -103t126 -303q0 -254 -167 -382t-470 -128h-179l-118 -518h-320zM496 733h145q155 0 234 73t79 232q0 81 -49.5 123.5t-165.5 42.5h-135z" />
<glyph unicode="Q" horiz-adv-x="1495" d="M92 590q0 134 34 260.5t101 235t158.5 190t214 128t260.5 46.5q186 0 326.5 -76.5t215.5 -214t75 -315.5q0 -283 -129.5 -489.5t-372.5 -282.5v-6l422 -72l-56 -242h-122l-588 193q-273 90 -406 244t-133 401zM418 582q0 -83 15.5 -149t49.5 -119t94.5 -82t143.5 -29 q88 0 162 42t122.5 109.5t82 154t48.5 172.5t15 169q0 76 -15 140t-47.5 120t-92.5 87.5t-142 31.5q-89 0 -163.5 -43t-124 -111.5t-84 -155.5t-49.5 -172t-15 -165z" />
<glyph unicode="R" horiz-adv-x="1286" d="M8 0l330 1434h434q249 0 373.5 -105.5t124.5 -306.5q0 -154 -93 -264.5t-253 -161.5l215 -512v-84h-289l-221 561h-172l-129 -561h-320zM506 776h164q143 0 218 65.5t75 196.5q0 80 -49 123t-164 43h-146z" />
<glyph unicode="S" horiz-adv-x="1085" d="M-16 137l49 219h106q114 -145 328 -145q67 0 120 17.5t90.5 64t37.5 117.5q0 22 -6 40.5t-13.5 32.5t-26 28.5t-32.5 23.5t-44 22.5t-50.5 21.5t-60.5 24l-4.5 1.5t-4 1.5t-4.5 2q-152 58 -228.5 148t-76.5 235q0 215 141 337t377 122q255 0 428 -137l-49 -207h-105 q-62 59 -129.5 88t-162.5 29q-91 0 -153 -45t-62 -134q0 -26 4.5 -45.5t18.5 -36.5t29 -29.5t46 -28t59.5 -27t79.5 -31.5q79 -30 134 -61.5t101.5 -76.5t69.5 -107t23 -142q0 -228 -150.5 -351.5t-408.5 -123.5q-303 0 -471 153z" />
<glyph unicode="T" horiz-adv-x="1169" d="M199 1208l51 226h1085l-51 -226h-383l-278 -1208h-320l279 1208h-383z" />
<glyph unicode="U" horiz-adv-x="1363" d="M118 327q-8 44 -9 92q0 75 20 161l197 854h319l-207 -893q-14 -52 -14 -99q0 -14 1 -26q5 -58 27.5 -102t76 -69.5t133.5 -25.5q131 0 205.5 70t111.5 229l211 916h266l-215 -934q-28 -120 -74 -211t-117.5 -161.5t-176 -107t-238.5 -36.5q-143 0 -252.5 40t-176 116 t-88.5 187z" />
<glyph unicode="V" horiz-adv-x="1306" d="M231 1350v84h306l94 -1065h4l573 1065h250v-84l-756 -1350h-327z" />
<glyph unicode="W" horiz-adv-x="1878" d="M238 1350v84h299l8 -1041h4l473 1041h270l6 -1041h5l454 1041h264v-84l-632 -1350h-355l8 938h-4l-415 -938h-357z" />
<glyph unicode="X" horiz-adv-x="1331" d="M-31 0v90l539 658l-244 595v91h303l193 -508l385 508h258v-91l-496 -618l258 -635v-90h-303l-209 549l-426 -549h-258z" />
<glyph unicode="Y" horiz-adv-x="1212" d="M219 1343v91h297l180 -594h4l430 594h244v-91l-590 -798l-125 -545h-319l133 575z" />
<glyph unicode="Z" horiz-adv-x="1142" d="M-63 0l55 242l870 956v8h-596l53 228h967l-57 -248l-873 -957v-8h650l-50 -221h-1019z" />
<glyph unicode="[" horiz-adv-x="692" d="M0 -100l375 1618h485l-47 -197h-207l-282 -1225h206l-45 -196h-485z" />
<glyph unicode="\" horiz-adv-x="720" d="M197 1456v62h227l186 -1557v-61h-227z" />
<glyph unicode="]" horiz-adv-x="692" d="M-80 -100l45 196h207l283 1225h-207l47 197h485l-374 -1618h-486z" />
<glyph unicode="^" horiz-adv-x="862" d="M139 926v69l379 439h215l195 -439v-69h-221l-121 264h-6l-228 -264h-213z" />
<glyph unicode="_" horiz-adv-x="763" d="M-199 -332l45 191h770l-45 -191h-770z" />
<glyph unicode="`" horiz-adv-x="819" d="M301 1348v86h283l78 -220v-63h-181z" />
<glyph unicode="a" horiz-adv-x="1042" d="M6 276q0 173 126.5 272t340.5 99q112 0 186 -24l9 39q10 44 10 80q0 135 -152 135q-147 0 -264 -66h-86l49 213q164 68 353 68q234 0 336 -113q66 -74 65 -199q0 -67 -18 -149l-146 -631h-96q-115 0 -148 102q-111 -114 -274 -114q-131 0 -211 75t-80 213zM287 297 q0 -59 30.5 -91t88.5 -32q50 0 89 20t80 60l46 205q-66 16 -129 16q-99 0 -152 -49t-53 -129z" />
<glyph unicode="b" horiz-adv-x="1189" d="M-8 0l327 1434h183q32 0 50.5 -6.5t30.5 -24t11.5 -51t-12.5 -86.5l-72 -312q138 138 321 138q132 0 219 -97t87 -288q0 -332 -155.5 -526.5t-406.5 -194.5q-99 0 -172.5 37t-119.5 90q-86 -113 -207 -113h-84zM350 248q64 -68 168 -68q105 0 179 70t108.5 182.5 t34.5 255.5q0 88 -36.5 135t-98.5 47q-97 0 -234 -92z" />
<glyph unicode="c" horiz-adv-x="991" d="M55 428q0 145 50 269.5t136.5 210.5t205.5 135t255 49q195 0 316 -91l-45 -192h-109q-54 65 -170 65q-154 0 -249 -126.5t-95 -317.5q0 -231 211 -231q115 0 209 63h111l-47 -203q-115 -73 -295 -73q-239 0 -361.5 118t-122.5 324z" />
<glyph unicode="d" horiz-adv-x="1189" d="M49 379q0 197 73.5 360t205 257t293.5 94q164 0 251 -101l103 445h180q32 0 50.5 -6.5t30.5 -24t11.5 -51t-12.5 -86.5l-289 -1266h-74q-151 0 -172 131q-121 -147 -305 -147q-75 0 -136 22t-109 67.5t-74.5 123t-26.5 182.5zM346 391q0 -103 36 -152t118 -49 q97 0 211 86l118 527q-67 63 -161 63q-99 0 -173 -63t-111.5 -170t-37.5 -242z" />
<glyph unicode="e" horiz-adv-x="1054" d="M49 426q0 131 40 251t112 212.5t182 147.5t240 55q191 0 290 -104q97 -102 97 -276v-7q0 -109 -35 -234h-635v-41q0 -126 51 -180.5t156 -54.5q145 0 264 75h96l-47 -207q-140 -77 -346 -77q-224 0 -344.5 112.5t-120.5 327.5zM365 651h378q9 43 9 80q0 84 -39.5 127 t-108.5 43q-87 0 -148 -66.5t-91 -183.5z" />
<glyph unicode="f" horiz-adv-x="686" d="M45 0l191 874h-127l43 201h127l18 82q68 297 375 297q117 0 184 -29l-39 -178h-63q-73 0 -110 -20.5t-50 -79.5l-16 -72h184l-43 -201h-187l-196 -874h-291z" />
<glyph unicode="g" horiz-adv-x="1177" d="M-20 -254l49 207h90q82 -88 252 -88q116 0 189.5 47t98.5 158l27 116q-62 -65 -143.5 -103t-171.5 -38q-67 0 -124 21.5t-102 64t-70.5 112.5t-25.5 160q0 144 43 271t118 219t182 145.5t231 53.5q89 0 161.5 -35.5t120.5 -85.5q81 104 201 104h84l-234 -1012 q-27 -116 -78 -197.5t-126.5 -128.5t-166.5 -68t-210 -21q-245 0 -395 98zM346 416q0 -162 133 -162q119 0 246 102l106 469q-20 20 -37 33t-52 25t-78 12q-78 0 -140.5 -41t-100.5 -109.5t-57.5 -152.5t-19.5 -176z" />
<glyph unicode="h" horiz-adv-x="1171" d="M-8 0l327 1434h181q32 0 50.5 -6.5t30.5 -24t11.5 -51t-12.5 -86.5l-72 -318q90 69 180 106.5t203 37.5q130 0 194 -99q41 -63 40 -152q0 -52 -13 -112l-168 -729h-199q-54 0 -69 28q-7 13 -7 36q0 27 9 69l133 596q5 26 5 46q0 79 -79 79q-114 0 -274 -98l-172 -756 h-299z" />
<glyph unicode="i" horiz-adv-x="532" d="M-6 0l246 1075h163q31 0 50 -4t34 -15.5t19.5 -33t2 -57t-14.5 -86.5l-201 -879h-299zM274 1313q0 68 50.5 115t119.5 47q66 0 110 -44.5t44 -107.5q0 -69 -51.5 -115.5t-120.5 -46.5q-66 0 -109 44t-43 108z" />
<glyph unicode="j" horiz-adv-x="528" d="M-242 -315l39 165h37q76 0 106.5 23.5t47.5 99.5l252 1102h163q31 0 50 -4t34 -15.5t19.5 -33t2 -57t-14.5 -86.5l-211 -924q-37 -163 -121 -231t-225 -68q-97 0 -179 29zM274 1313q0 68 50.5 115t119.5 47q66 0 110 -44.5t44 -107.5q0 -69 -51.5 -115.5t-120.5 -46.5 q-66 0 -109 44t-43 108z" />
<glyph unicode="k" horiz-adv-x="1073" d="M-8 0l327 1434h181q32 0 50.5 -6.5t30.5 -24t11.5 -51t-12.5 -86.5l-138 -598l414 407h260v-78l-407 -374l247 -541v-82h-276l-199 434l-116 -110l-74 -324h-299z" />
<glyph unicode="l" horiz-adv-x="538" d="M-6 0l328 1434h180q32 0 50.5 -6.5t30.5 -24t11.5 -51t-12.5 -86.5l-289 -1266h-299z" />
<glyph unicode="m" horiz-adv-x="1736" d="M-8 0l246 1075h94q157 0 160 -147q90 77 175.5 120.5t186.5 43.5q85 0 143 -43.5t78 -122.5q202 166 387 166q132 0 193 -98q37 -60 37 -145q0 -55 -15 -120l-170 -729h-198q-53 0 -69 28q-7 13 -8 37q0 27 9 68l133 596q6 28 6 49q0 76 -71 76q-82 0 -234 -92l-6 -33 l-170 -729h-297l164 729q6 28 6 49q0 76 -72 76q-88 0 -233 -94l-174 -760h-301z" />
<glyph unicode="n" horiz-adv-x="1171" d="M-8 0l246 1075h98q81 0 117 -36t39 -103q95 75 188 115.5t211 40.5q130 0 194 -99q41 -63 40 -152q0 -52 -13 -112l-168 -729h-199q-54 0 -69 28q-7 13 -7 36q0 27 9 69l133 596q5 26 5 46q0 79 -79 79q-114 0 -274 -98l-172 -756h-299z" />
<glyph unicode="o" d="M55 438q0 145 47.5 269t128 207.5t187 130.5t223.5 47q221 0 345 -125.5t124 -335.5q0 -194 -77.5 -341.5t-209.5 -224.5t-297 -77q-222 0 -346.5 120.5t-124.5 329.5zM348 432q0 -237 189 -237q87 0 152.5 63.5t96.5 162.5t31 216q0 242 -184 242q-85 0 -151.5 -65.5 t-100 -166.5t-33.5 -215z" />
<glyph unicode="p" horiz-adv-x="1179" d="M-82 -332l320 1407h98q150 0 160 -137q63 69 148 111.5t175 42.5q141 0 229.5 -98.5t88.5 -299.5q0 -320 -153 -501t-400 -181q-168 0 -265 90l-98 -434h-303zM358 270q67 -59 168 -59q152 0 233 130.5t81 346.5q0 88 -36.5 135t-98.5 47q-103 0 -230 -88z" />
<glyph unicode="q" horiz-adv-x="1189" d="M49 375q0 208 78.5 372.5t211.5 253.5t294 89q173 0 274 -121q84 106 203 106h84l-322 -1407h-301l107 465q-58 -58 -136.5 -89.5t-162.5 -31.5q-67 0 -124.5 20.5t-104.5 62.5t-74 114t-27 166zM346 395q0 -98 36 -139t103 -41q113 0 234 100l115 502q-63 55 -175 55 q-92 0 -164.5 -65.5t-110.5 -174t-38 -237.5z" />
<glyph unicode="r" horiz-adv-x="794" d="M-8 0l246 1075h94q92 -1 128 -47q32 -41 33 -111q0 -10 -1 -20q63 87 143 137.5t168 50.5q31 0 61 -10l-55 -252h-37q-189 0 -315 -106l-164 -717h-301z" />
<glyph unicode="s" horiz-adv-x="888" d="M-37 90l47 203h96q80 -94 238 -94q76 0 124 26t48 80q0 40 -31 63.5t-110 51.5q-145 51 -212 118t-67 185q0 169 116.5 265.5t319.5 96.5q205 0 345 -100l-46 -188h-90q-88 80 -221 80q-155 0 -155 -103q0 -36 31 -59t116 -53q68 -24 113.5 -47t86.5 -57t61 -81.5 t20 -109.5q0 -175 -122.5 -277t-334.5 -102q-236 0 -373 102z" />
<glyph unicode="t" horiz-adv-x="710" d="M106 334l125 540h-116l43 201h118l66 287h299l-66 -287h193l-43 -201h-197l-125 -546q-6 -26 -6 -47q-1 -36 17 -58q28 -35 110 -35h51l-38 -178q-70 -26 -166 -26q-167 0 -235 92q-44 60 -43 150q0 50 13 108z" />
<glyph unicode="u" d="M61 346l170 729h199q54 1 70 -27q7 -13 7 -38q0 -27 -9 -68l-133 -596q-6 -27 -6 -48q0 -79 79 -79q104 0 252 92l174 764h299l-245 -1075h-78q-156 0 -170 141q-95 -76 -181.5 -116.5t-193.5 -40.5q-143 0 -209 96q-41 59 -40 147q0 54 15 119z" />
<glyph unicode="v" horiz-adv-x="1060" d="M127 997v78h285l86 -729h4l366 729h246v-78l-545 -997h-299z" />
<glyph unicode="w" horiz-adv-x="1576" d="M133 997v78h281l41 -678h4l317 678h230l65 -678h4l301 678h240v-78l-488 -997h-258l-71 670h-4l-314 -670h-266z" />
<glyph unicode="x" horiz-adv-x="1069" d="M-51 0v78l409 485l-184 434v78h285l129 -327l268 327h246v-78l-383 -444l213 -475v-78h-285l-155 367l-297 -367h-246z" />
<glyph unicode="y" horiz-adv-x="1060" d="M35 -252l248 367l-156 882v78h281l98 -641h4l358 641h246v-78l-807 -1329h-272v80z" />
<glyph unicode="z" horiz-adv-x="970" d="M-70 0l47 207l646 657h-463l49 211h817l-47 -209l-651 -655h485l-49 -211h-834z" />
<glyph unicode="{" horiz-adv-x="751" d="M66 631l47 196h47q114 0 139 113l74 315q31 134 101 198.5t214 64.5h232l-48 -197h-151q-54 0 -70 -64l-71 -315q-22 -89 -76.5 -143.5t-159.5 -75.5v-6q93 -27 121.5 -86t7.5 -152l-74 -319q-16 -64 45 -64h146l-45 -196h-150q-165 0 -233.5 73.5t-36.5 210.5l78 334 q12 53 -7.5 83t-72.5 30h-57z" />
<glyph unicode="|" horiz-adv-x="512" d="M184 -100l2 1618h236l-2 -1618h-236z" />
<glyph unicode="}" horiz-adv-x="751" d="M-80 -100l47 196h152q53 0 69 64l76 336q22 89 76.5 143.5t159.5 75.5v6q-93 27 -121.5 86t-7.5 151l69 299q16 64 -45 64h-145l45 197h149q165 0 234 -74t37 -211l-74 -313q-12 -53 7.5 -83t72.5 -30h57l-47 -197h-47q-114 0 -139 -112l-78 -336q-31 -134 -101 -198 t-214 -64h-232z" />
<glyph unicode="~" horiz-adv-x="806" d="M49 440v92q27 99 91.5 158.5t158.5 59.5q62 0 145.5 -28t100.5 -28q57 0 80 62h166v-92q-27 -101 -91.5 -159.5t-158.5 -58.5q-54 0 -140.5 28t-105.5 28q-57 0 -80 -62h-166z" />
<glyph unicode="&#xa1;" horiz-adv-x="540" d="M-47 -147l41 176l268 835h189l-138 -835l-41 -176h-319zM240 1128q0 72 54 121t126 49q70 0 115 -46t45 -113q0 -71 -53.5 -120.5t-125.5 -49.5q-70 0 -115.5 46.5t-45.5 112.5z" />
<glyph unicode="&#xa2;" horiz-adv-x="1058" d="M55 436q0 179 82 325.5t223.5 232.5t315.5 96l26 116h183l-29 -123q124 -15 213 -82l-45 -192h-109q-40 44 -108 57l-154 -663q95 10 168 59h111l-47 -203q-102 -65 -283 -73l-45 -197h-182l47 209q-181 33 -274 148.5t-93 289.5zM350 442q0 -174 123 -225l150 643 q-130 -36 -201.5 -150.5t-71.5 -267.5z" />
<glyph unicode="&#xa3;" horiz-adv-x="1044" d="M-66 0l48 211q79 27 139.5 91.5t81.5 150.5q16 71 16 159h-145l47 209h90q-7 136 16 236q45 194 191.5 293.5t365.5 99.5q244 0 375 -117l-47 -213h-108q-93 90 -230 90q-82 0 -148 -45.5t-87 -132.5q-17 -73 -21 -211h342l-47 -209h-299q-7 -78 -20 -141 q-35 -137 -132 -221h613l-57 -250h-984z" />
<glyph unicode="&#xa5;" horiz-adv-x="1191" d="M63 322l41 178h345l24 112h-342l41 179h254l-188 552v91h288l168 -549h4l392 549h245v-91l-420 -552h261l-41 -179h-347l-24 -112h344l-41 -178h-344l-74 -322h-315l74 322h-345z" />
<glyph unicode="&#xa6;" horiz-adv-x="509" d="M184 -100v731h236v-731h-236zM184 805v713h236v-713h-236z" />
<glyph unicode="&#xa7;" horiz-adv-x="1073" d="M-16 -158l47 201h100q100 -100 244 -100q180 0 180 106q0 52 -47.5 88.5t-169.5 81.5q-152 55 -222.5 131.5t-70.5 192.5q0 124 75 200t204 109q-76 76 -76 217q0 166 130 273.5t341 107.5q125 0 204.5 -24.5t149.5 -67.5l-45 -201h-106q-94 74 -207 74 q-88 0 -140.5 -31.5t-52.5 -85.5q0 -53 38.5 -85.5t158.5 -72.5q87 -29 145 -58.5t102 -68.5t64.5 -89.5t20.5 -116.5q0 -48 -15 -94t-46.5 -89t-88 -78t-131.5 -55q84 -78 84 -196q0 -174 -126 -276.5t-359 -102.5q-131 0 -220.5 30.5t-164.5 79.5zM326 606q0 -46 36 -81 t121 -66q113 -45 125 -51q80 22 119 57.5t39 91.5q0 53 -41 87.5t-133 66.5q-58 18 -105 39q-80 -11 -120.5 -50.5t-40.5 -93.5z" />
<glyph unicode="&#xa8;" horiz-adv-x="819" d="M242 1305q0 65 48 110t113 45q63 0 104.5 -42.5t41.5 -102.5q0 -66 -49 -111t-115 -45q-63 0 -103 42.5t-40 103.5zM635 1305q0 65 48 110t114 45q63 0 104 -42.5t41 -102.5q0 -66 -49 -111t-115 -45q-63 0 -103 42.5t-40 103.5z" />
<glyph unicode="&#xa9;" horiz-adv-x="1597" d="M109 717q0 172 59.5 313t161.5 231.5t234 139.5t280 49t280 -49t234 -139.5t161.5 -231.5t59.5 -313t-59.5 -313t-161.5 -231.5t-234 -139.5t-280 -49t-280 49t-234 139.5t-161.5 231.5t-59.5 313zM236 717q0 -195 82 -339.5t218.5 -217t307.5 -72.5t307.5 72.5 t218.5 217t82 339.5t-82 339.5t-218.5 217t-307.5 72.5t-307.5 -72.5t-218.5 -217t-82 -339.5zM459 719q0 185 118 296t300 111q141 0 245 -53v-172h-92q-61 57 -153 57q-86 0 -135.5 -62t-49.5 -179q0 -234 180 -234q106 0 170 60h82v-156q-109 -72 -258 -72 q-192 0 -299.5 106.5t-107.5 297.5z" />
<glyph unicode="&#xaa;" horiz-adv-x="915" d="M119 764q0 153 112 233t299 80q90 0 172 -20l7 22q21 92 -13 132t-116 40q-133 0 -236 -59h-82l47 197q142 61 326 61q205 0 296.5 -96.5t45.5 -298.5l-121 -527h-86q-118 0 -141 101q-92 -111 -258 -111q-119 0 -185.5 66t-66.5 180zM385 784q0 -46 24 -70t68 -24 q73 0 158 66l35 151q-60 17 -117 17q-80 0 -124 -36.5t-44 -103.5z" />
<glyph unicode="&#xab;" horiz-adv-x="1054" d="M61 489l27 117l326 377h241v-65l-331 -398v-6l139 -367v-65h-238zM494 489l26 117l326 377h241v-65l-331 -398v-6l139 -367v-65h-238z" />
<glyph unicode="&#xad;" horiz-adv-x="579" d="M43 487l57 244h473l-57 -244h-473z" />
<glyph unicode="&#xae;" horiz-adv-x="790" d="M143 1083q0 112 53.5 197.5t138.5 127.5t185 42q154 0 265.5 -100t111.5 -267q0 -166 -111.5 -266t-265.5 -100q-100 0 -185 42.5t-138.5 127.5t-53.5 196zM229 1083q0 -141 81.5 -216.5t209.5 -75.5t209.5 75.5t81.5 216.5t-82 217t-209 76t-209 -76t-82 -217zM369 903 v379h163q156 0 156 -125q0 -68 -59 -100l67 -117v-37h-110l-66 129h-35v-129h-116zM485 1108h37q27 0 38 12.5t11 38.5q0 47 -49 47h-37v-98z" />
<glyph unicode="&#xaf;" horiz-adv-x="819" d="M299 1196l47 201h533l-48 -201h-532z" />
<glyph unicode="&#xb0;" horiz-adv-x="712" d="M190 1145q0 135 94.5 218t223.5 83q123 0 204 -78.5t81 -198.5q0 -91 -45.5 -161t-117.5 -105t-155 -35q-123 0 -204 78.5t-81 198.5zM352 1147q0 -63 35.5 -102t95.5 -39q65 0 108.5 43.5t43.5 117.5q0 62 -37 102t-98 40q-65 0 -106.5 -43.5t-41.5 -118.5z" />
<glyph unicode="&#xb2;" horiz-adv-x="688" d="M80 645l41 178l244 176q86 62 130 108t44 93q0 72 -88 72q-84 0 -152 -53h-78l39 170q102 57 240 57q136 0 208 -59t72 -160q0 -91 -63 -164t-201 -162l-131 -84h311l-41 -172h-575z" />
<glyph unicode="&#xb3;" horiz-adv-x="677" d="M88 721l33 143h80q63 -73 157 -73q53 0 87 24t34 66q0 86 -112 86h-66l35 147h88q54 0 84.5 24t30.5 62q0 80 -103 80q-60 0 -135 -41h-78l35 154q93 55 225 55q126 0 200.5 -52.5t74.5 -160.5q0 -159 -193 -199v-4q61 -14 98 -56.5t37 -107.5q0 -110 -93 -172.5 t-240 -62.5q-171 0 -279 88z" />
<glyph unicode="&#xb4;" horiz-adv-x="819" d="M471 1151v63l107 220h290v-86l-235 -197h-162z" />
<glyph unicode="&#xb6;" horiz-adv-x="1212" d="M156 963q0 108 35 191t93 135t140.5 85.5t169 46.5t186.5 13h516l-374 -1620h-213l327 1411h-145l-328 -1411h-213l187 807h-7q-163 0 -268.5 91.5t-105.5 250.5z" />
<glyph unicode="&#xb7;" horiz-adv-x="415" d="M55 600q0 71 53 120.5t125 49.5q70 0 116 -47t46 -113q0 -72 -54 -121t-126 -49q-69 0 -114.5 46.5t-45.5 113.5z" />
<glyph unicode="&#xb8;" horiz-adv-x="819" d="M61 -317l27 114h59q18 -28 72 -28q64 0 64 38q0 37 -66 37h-53l37 156h141l-12 -49q65 -3 99 -39.5t34 -93.5q0 -49 -19.5 -85t-54 -55t-73.5 -27.5t-85 -8.5q-111 0 -170 41z" />
<glyph unicode="&#xb9;" horiz-adv-x="538" d="M190 1143l41 176l244 115h174l-182 -789h-240l127 553l-118 -55h-46z" />
<glyph unicode="&#xba;" horiz-adv-x="1064" d="M152 905q0 163 75.5 289.5t194 191t256.5 64.5q186 0 309 -103.5t123 -285.5q0 -123 -45 -227.5t-119.5 -173t-169.5 -106.5t-196 -38q-192 0 -310 107t-118 282zM428 897q0 -91 44 -138.5t118 -47.5q96 0 170 98t74 260q0 88 -41.5 140.5t-120.5 52.5q-95 0 -169.5 -97 t-74.5 -268z" />
<glyph unicode="&#xbb;" horiz-adv-x="1054" d="M-27 82v65l332 398v6l-139 367v65h237l164 -408l-26 -116l-326 -377h-242zM406 82v65l331 398v6l-139 367v65h238l163 -408l-26 -116l-326 -377h-241z" />
<glyph unicode="&#xbc;" horiz-adv-x="1486" d="M14 -70l1289 1563h223l-1288 -1563h-224zM188 1143l41 176l244 115h174l-182 -789h-240l127 553l-119 -55h-45zM705 162l40 174l463 452h217l-110 -477h82l-35 -149h-82l-37 -162h-217l37 162h-358zM905 311h195l57 244h-6l-246 -240v-4z" />
<glyph unicode="&#xbd;" horiz-adv-x="1583" d="M14 -70l1289 1563h223l-1288 -1563h-224zM188 1143l41 176l244 115h174l-182 -789h-240l127 553l-119 -55h-45zM825 0l41 178l244 176q86 62 130 108t44 93q0 72 -88 72q-83 0 -152 -54h-77l39 170q103 58 239 58t208.5 -59t72.5 -160q0 -90 -64.5 -163t-204.5 -163 l-131 -84h316l-41 -172h-576z" />
<glyph unicode="&#xbe;" horiz-adv-x="1581" d="M98 721l33 143h80q63 -73 156 -73q52 0 83 24t31 66q0 86 -108 86h-62l35 147h84q54 0 82.5 24t28.5 62q0 41 -23 60.5t-72 19.5q-60 0 -135 -41h-78l35 154q39 23 100.5 39t125.5 16q126 0 200 -52.5t74 -160.5q0 -159 -193 -199v-4q61 -14 98.5 -56.5t37.5 -107.5 q0 -110 -93.5 -172.5t-240.5 -62.5q-171 0 -279 88zM121 -70l1288 1563h223l-1288 -1563h-223zM799 162l41 174l463 452h217l-111 -477h82l-35 -149h-82l-37 -162h-217l37 162h-358zM999 311h195l57 244h-6l-246 -240v-4z" />
<glyph unicode="&#xbf;" horiz-adv-x="919" d="M-10 170q0 236 293 408q129 75 186.5 132t73.5 154h213q-11 -137 -54 -221t-165 -176q-13 -10 -49 -35.5t-54.5 -39.5t-47.5 -40.5t-43.5 -48t-26 -52t-11.5 -61.5q0 -62 41 -92t111 -30q121 0 223 71h117l-52 -223q-141 -82 -342 -82q-84 0 -155 17.5t-130.5 55 t-93.5 104.5t-34 159zM524 1128q0 72 54.5 121t126.5 49q69 0 114 -46t45 -113q0 -71 -53 -120.5t-125 -49.5q-71 0 -116.5 46.5t-45.5 112.5z" />
<glyph unicode="&#xc0;" horiz-adv-x="1361" d="M-70 0v84l762 1350h342l178 -1350v-84h-313l-41 379h-477l-199 -379h-252zM496 598h338l-56 528h-4zM614 1655v86h283l70 -199v-63h-181z" />
<glyph unicode="&#xc1;" horiz-adv-x="1361" d="M-70 0v84l762 1350h342l178 -1350v-84h-313l-41 379h-477l-199 -379h-252zM496 598h338l-56 528h-4zM766 1479v63l96 199h291v-86l-225 -176h-162z" />
<glyph unicode="&#xc2;" horiz-adv-x="1361" d="M-70 0v84l762 1350h342l178 -1350v-84h-313l-41 379h-477l-199 -379h-252zM496 598h338l-56 528h-4zM569 1479v75l215 195h205l150 -195v-75h-168l-107 86l-143 -86h-152z" />
<glyph unicode="&#xc3;" horiz-adv-x="1361" d="M-70 0v84l762 1350h342l178 -1350v-84h-313l-41 379h-477l-199 -379h-252zM496 598h338l-56 528h-4zM541 1479v77q65 193 225 193q54 0 124.5 -26.5t90.5 -26.5q47 0 72 55h153v-78q-65 -192 -225 -192q-54 0 -123.5 28.5t-89.5 28.5q-53 0 -74 -59h-153z" />
<glyph unicode="&#xc4;" horiz-adv-x="1361" d="M-70 0v84l762 1350h342l178 -1350v-84h-313l-41 379h-477l-199 -379h-252zM496 598h338l-56 528h-4zM539 1624q0 65 48 110.5t113 45.5q63 0 104.5 -43t41.5 -103q0 -66 -49 -110.5t-115 -44.5q-63 0 -103 42t-40 103zM932 1624q0 65 48.5 110.5t113.5 45.5q63 0 104 -43 t41 -103q0 -66 -49 -110.5t-115 -44.5q-63 0 -103 42t-40 103z" />
<glyph unicode="&#xc5;" horiz-adv-x="1361" d="M-70 0v84l762 1350h342l178 -1350v-84h-313l-41 379h-477l-199 -379h-252zM496 598h338l-56 528h-4zM694 1675q0 97 66.5 158t157.5 61q89 0 147.5 -53t58.5 -143q0 -96 -65.5 -155.5t-157.5 -59.5q-89 0 -148 52t-59 140zM836 1677q0 -31 17.5 -49t49.5 -18q36 0 59 24 t23 62q0 33 -19.5 52t-52.5 19q-35 0 -56 -24.5t-21 -65.5z" />
<glyph unicode="&#xc6;" horiz-adv-x="1908" d="M-88 0v84l958 1350h1137l-53 -232h-594l-84 -364h438l-51 -220h-438l-90 -393h641l-52 -225h-960l88 383h-426l-262 -383h-252zM578 602h323l139 600h-49z" />
<glyph unicode="&#xc7;" horiz-adv-x="1263" d="M92 561q0 134 34 262.5t103.5 241.5t166 199t230 136t287.5 50q248 0 398 -102l-49 -213h-113q-94 84 -250 84q-102 0 -186 -43.5t-137.5 -112.5t-90 -158.5t-52 -176.5t-15.5 -171q0 -348 313 -348q151 0 285 92h121l-54 -231q-150 -86 -368 -86q-12 0 -35 1t-33 1 l-8 -35q65 -3 99 -39.5t34 -93.5q0 -65 -35 -106t-84 -55.5t-112 -14.5q-111 0 -170 41l26 114h60q17 -28 71 -28q64 0 64 38q0 37 -66 37h-53l37 160q-197 46 -307.5 186t-110.5 371z" />
<glyph unicode="&#xc8;" horiz-adv-x="1153" d="M8 0l330 1434h913l-53 -232h-594l-84 -364h438l-51 -220h-438l-90 -393h641l-51 -225h-961zM549 1655v86h282l70 -199v-63h-180z" />
<glyph unicode="&#xc9;" horiz-adv-x="1153" d="M8 0l330 1434h913l-53 -232h-594l-84 -364h438l-51 -220h-438l-90 -393h641l-51 -225h-961zM700 1479v63l97 199h290v-86l-225 -176h-162z" />
<glyph unicode="&#xca;" horiz-adv-x="1153" d="M8 0l330 1434h913l-53 -232h-594l-84 -364h438l-51 -220h-438l-90 -393h641l-51 -225h-961zM504 1479v75l215 195h205l149 -195v-75h-168l-106 86l-144 -86h-151z" />
<glyph unicode="&#xcb;" horiz-adv-x="1153" d="M8 0l330 1434h913l-53 -232h-594l-84 -364h438l-51 -220h-438l-90 -393h641l-51 -225h-961zM473 1624q0 65 48.5 110.5t113.5 45.5q63 0 104 -43t41 -103q0 -66 -49 -110.5t-115 -44.5q-63 0 -103 42t-40 103zM866 1624q0 65 48.5 110.5t113.5 45.5q63 0 104.5 -43 t41.5 -103q0 -66 -49 -110.5t-115 -44.5q-63 0 -103.5 42t-40.5 103z" />
<glyph unicode="&#xcc;" horiz-adv-x="587" d="M14 0l330 1434h322l-330 -1434h-322zM264 1655v86h283l69 -199v-63h-180z" />
<glyph unicode="&#xcd;" horiz-adv-x="587" d="M14 0l330 1434h322l-330 -1434h-322zM416 1479v63l96 199h291v-86l-225 -176h-162z" />
<glyph unicode="&#xce;" horiz-adv-x="587" d="M14 0l330 1434h322l-330 -1434h-322zM219 1479v75l215 195h205l149 -195v-75h-167l-107 86l-143 -86h-152z" />
<glyph unicode="&#xcf;" horiz-adv-x="587" d="M14 0l330 1434h322l-330 -1434h-322zM188 1624q0 65 48.5 110.5t113.5 45.5q63 0 104.5 -43t41.5 -103q0 -66 -49 -110.5t-115 -44.5q-63 0 -103.5 42t-40.5 103zM582 1624q0 65 48 110.5t113 45.5q63 0 104.5 -43t41.5 -103q0 -66 -49 -110.5t-115 -44.5q-63 0 -103 42 t-40 103z" />
<glyph unicode="&#xd0;" horiz-adv-x="1421" d="M8 0l139 604h-124l49 219h125l141 611h440q294 0 457.5 -152.5t163.5 -433.5q0 -130 -31.5 -252t-97 -230.5t-158.5 -189.5t-225.5 -128.5t-288.5 -47.5h-590zM379 225h209q91 0 166.5 28t126.5 76.5t89.5 109.5t59.5 133t31 140t10 136q0 356 -299 356h-168l-88 -381 h305l-49 -219h-307z" />
<glyph unicode="&#xd1;" horiz-adv-x="1404" d="M8 0l330 1434h362l301 -918h7l213 918h268l-330 -1434h-291l-348 1042h-6l-240 -1042h-266zM645 1479v77q65 193 225 193q54 0 124.5 -26.5t90.5 -26.5q47 0 72 55h154v-78q-65 -192 -226 -192q-54 0 -123.5 28.5t-89.5 28.5q-52 0 -73 -59h-154z" />
<glyph unicode="&#xd2;" horiz-adv-x="1495" d="M92 590q0 134 34 260.5t101 235t158.5 190t214 128t260.5 46.5q186 0 326.5 -76.5t215.5 -214t75 -315.5q0 -129 -32 -253t-97.5 -234t-155.5 -193t-215.5 -131.5t-269.5 -48.5q-282 0 -448.5 167t-166.5 439zM418 582q0 -82 16.5 -148.5t51 -118.5t93.5 -81t138 -29 q88 0 162 42t123 109t83.5 153t50 172.5t15.5 168.5q0 76 -15 140t-47.5 120t-92.5 87.5t-142 31.5q-89 0 -163.5 -43t-124 -111.5t-84 -155.5t-49.5 -172t-15 -165zM645 1655v86h283l69 -199v-63h-180z" />
<glyph unicode="&#xd3;" horiz-adv-x="1495" d="M92 590q0 134 34 260.5t101 235t158.5 190t214 128t260.5 46.5q186 0 326.5 -76.5t215.5 -214t75 -315.5q0 -129 -32 -253t-97.5 -234t-155.5 -193t-215.5 -131.5t-269.5 -48.5q-282 0 -448.5 167t-166.5 439zM418 582q0 -82 16.5 -148.5t51 -118.5t93.5 -81t138 -29 q88 0 162 42t123 109t83.5 153t50 172.5t15.5 168.5q0 76 -15 140t-47.5 120t-92.5 87.5t-142 31.5q-89 0 -163.5 -43t-124 -111.5t-84 -155.5t-49.5 -172t-15 -165zM797 1479v63l96 199h291v-86l-226 -176h-161z" />
<glyph unicode="&#xd4;" horiz-adv-x="1495" d="M92 590q0 134 34 260.5t101 235t158.5 190t214 128t260.5 46.5q186 0 326.5 -76.5t215.5 -214t75 -315.5q0 -129 -32 -253t-97.5 -234t-155.5 -193t-215.5 -131.5t-269.5 -48.5q-282 0 -448.5 167t-166.5 439zM418 582q0 -82 16.5 -148.5t51 -118.5t93.5 -81t138 -29 q88 0 162 42t123 109t83.5 153t50 172.5t15.5 168.5q0 76 -15 140t-47.5 120t-92.5 87.5t-142 31.5q-89 0 -163.5 -43t-124 -111.5t-84 -155.5t-49.5 -172t-15 -165zM600 1479v75l215 195h205l149 -195v-75h-168l-106 86l-143 -86h-152z" />
<glyph unicode="&#xd5;" horiz-adv-x="1495" d="M92 590q0 134 34 260.5t101 235t158.5 190t214 128t260.5 46.5q186 0 326.5 -76.5t215.5 -214t75 -315.5q0 -129 -32 -253t-97.5 -234t-155.5 -193t-215.5 -131.5t-269.5 -48.5q-282 0 -448.5 167t-166.5 439zM418 582q0 -82 16.5 -148.5t51 -118.5t93.5 -81t138 -29 q88 0 162 42t123 109t83.5 153t50 172.5t15.5 168.5q0 76 -15 140t-47.5 120t-92.5 87.5t-142 31.5q-89 0 -163.5 -43t-124 -111.5t-84 -155.5t-49.5 -172t-15 -165zM584 1479v77q65 193 225 193q54 0 124.5 -26.5t90.5 -26.5q47 0 72 55h153v-78q-65 -192 -225 -192 q-54 0 -123.5 28.5t-89.5 28.5q-53 0 -74 -59h-153z" />
<glyph unicode="&#xd6;" horiz-adv-x="1495" d="M92 590q0 134 34 260.5t101 235t158.5 190t214 128t260.5 46.5q186 0 326.5 -76.5t215.5 -214t75 -315.5q0 -129 -32 -253t-97.5 -234t-155.5 -193t-215.5 -131.5t-269.5 -48.5q-282 0 -448.5 167t-166.5 439zM418 582q0 -82 16.5 -148.5t51 -118.5t93.5 -81t138 -29 q88 0 162 42t123 109t83.5 153t50 172.5t15.5 168.5q0 76 -15 140t-47.5 120t-92.5 87.5t-142 31.5q-89 0 -163.5 -43t-124 -111.5t-84 -155.5t-49.5 -172t-15 -165zM569 1624q0 65 48.5 110.5t113.5 45.5q63 0 104.5 -43t41.5 -103q0 -66 -49 -110.5t-115 -44.5 q-63 0 -103.5 42t-40.5 103zM963 1624q0 65 48 110.5t113 45.5q63 0 104.5 -43t41.5 -103q0 -66 -49 -110.5t-115 -44.5q-63 0 -103 42t-40 103z" />
<glyph unicode="&#xd7;" horiz-adv-x="1050" d="M57 397l355 303l-236 304l182 147l230 -299l350 299l129 -160l-352 -303l233 -303l-178 -147l-231 299l-349 -299z" />
<glyph unicode="&#xd8;" horiz-adv-x="1495" d="M39 16l174 193q-121 161 -121 381q0 134 34 260.5t101 235t158.5 190t214 128t260.5 46.5q213 0 367 -107l102 113h199v-55l-166 -187q115 -155 115 -370q0 -129 -32 -253t-97 -234t-155 -193t-216 -131.5t-270 -48.5q-207 0 -359 100l-110 -123h-199v55zM412 582 q0 -84 10 -138l637 711q-74 74 -205 74q-74 0 -139.5 -30t-112.5 -81.5t-84.5 -116.5t-60 -138.5t-34 -144.5t-11.5 -136zM512 266q72 -63 209 -63q88 0 162.5 42t124 109.5t84 154t50 173t15.5 168.5q0 57 -10 125z" />
<glyph unicode="&#xd9;" horiz-adv-x="1363" d="M117.5 327q-21.5 111 11.5 253l197 854h319l-207 -893q-18 -66 -13 -124.5t27.5 -102.5t76 -69.5t133.5 -25.5q131 0 205.5 70t111.5 229l211 916h266l-215 -934q-28 -120 -74 -211t-117.5 -161.5t-176 -107t-238.5 -36.5q-143 0 -252.5 40t-176.5 116t-88.5 187z M670 1655v86h282l70 -199v-63h-180z" />
<glyph unicode="&#xda;" horiz-adv-x="1363" d="M117.5 327q-21.5 111 11.5 253l197 854h319l-207 -893q-18 -66 -13 -124.5t27.5 -102.5t76 -69.5t133.5 -25.5q131 0 205.5 70t111.5 229l211 916h266l-215 -934q-28 -120 -74 -211t-117.5 -161.5t-176 -107t-238.5 -36.5q-143 0 -252.5 40t-176.5 116t-88.5 187z M821 1479v63l97 199h290v-86l-225 -176h-162z" />
<glyph unicode="&#xdb;" horiz-adv-x="1363" d="M117.5 327q-21.5 111 11.5 253l197 854h319l-207 -893q-18 -66 -13 -124.5t27.5 -102.5t76 -69.5t133.5 -25.5q131 0 205.5 70t111.5 229l211 916h266l-215 -934q-28 -120 -74 -211t-117.5 -161.5t-176 -107t-238.5 -36.5q-143 0 -252.5 40t-176.5 116t-88.5 187z M625 1479v75l215 195h204l150 -195v-75h-168l-106 86l-144 -86h-151z" />
<glyph unicode="&#xdc;" horiz-adv-x="1363" d="M117.5 327q-21.5 111 11.5 253l197 854h319l-207 -893q-18 -66 -13 -124.5t27.5 -102.5t76 -69.5t133.5 -25.5q131 0 205.5 70t111.5 229l211 916h266l-215 -934q-28 -120 -74 -211t-117.5 -161.5t-176 -107t-238.5 -36.5q-143 0 -252.5 40t-176.5 116t-88.5 187z M569 1624q0 65 48.5 110.5t113.5 45.5q63 0 104.5 -43t41.5 -103q0 -66 -49 -110.5t-115 -44.5q-63 0 -103.5 42t-40.5 103zM963 1624q0 65 48 110.5t113 45.5q63 0 104.5 -43t41.5 -103q0 -66 -49 -110.5t-115 -44.5q-63 0 -103 42t-40 103z" />
<glyph unicode="&#xdd;" horiz-adv-x="1212" d="M219 1343v91h297l180 -594h4l430 594h244v-91l-590 -798l-125 -545h-319l133 575zM735 1479v63l96 199h291v-86l-225 -176h-162z" />
<glyph unicode="&#xde;" horiz-adv-x="1210" d="M8 0l330 1434h319l-61 -265h109q247 0 373 -101t126 -290q0 -241 -168 -368t-469 -127h-176l-63 -283h-320zM440 498h144q155 0 234 70t79 220q0 76 -49 114t-166 38h-139z" />
<glyph unicode="&#xdf;" horiz-adv-x="1230" d="M-8 0l241 1055q18 86 59 156t106.5 125.5t165 86.5t224.5 31q181 0 298.5 -80t117.5 -215q0 -91 -44 -152.5t-148 -129.5q-44 -29 -67.5 -45t-53.5 -40t-43.5 -43t-13.5 -36q0 -26 23 -46t95 -63q108 -64 156.5 -131.5t48.5 -159.5q0 -151 -109.5 -238t-302.5 -87 q-180 0 -299 82l46 200h90q24 -32 70.5 -48.5t99.5 -16.5q65 0 98 24t33 56q0 36 -24 58t-89 58q-10 6 -16 9q-100 56 -143.5 111t-43.5 134q0 84 49 150.5t146 148.5q51 43 70 60t43.5 43t32 45t7.5 41q0 44 -38.5 73t-108.5 29q-192 0 -238 -201l-239 -1044h-299z" />
<glyph unicode="&#xe0;" horiz-adv-x="1042" d="M6 276q0 173 126.5 272t340.5 99q112 0 186 -24l9 39q50 215 -142 215q-147 0 -264 -66h-86l49 213q164 68 353 68q234 0 335.5 -113t47.5 -348l-146 -631h-96q-115 0 -148 102q-111 -114 -274 -114q-131 0 -211 75t-80 213zM287 297q0 -59 30.5 -91t88.5 -32q50 0 89 20 t80 60l46 205q-66 16 -129 16q-99 0 -152 -49t-53 -129zM360 1348v86h283l78 -220v-63h-180z" />
<glyph unicode="&#xe1;" horiz-adv-x="1042" d="M6 276q0 173 126.5 272t340.5 99q112 0 186 -24l9 39q50 215 -142 215q-147 0 -264 -66h-86l49 213q164 68 353 68q234 0 335.5 -113t47.5 -348l-146 -631h-96q-115 0 -148 102q-111 -114 -274 -114q-131 0 -211 75t-80 213zM287 297q0 -59 30.5 -91t88.5 -32q50 0 89 20 t80 60l46 205q-66 16 -129 16q-99 0 -152 -49t-53 -129zM530 1151v63l107 220h291v-86l-236 -197h-162z" />
<glyph unicode="&#xe2;" horiz-adv-x="1042" d="M6 276q0 173 126.5 272t340.5 99q112 0 186 -24l9 39q50 215 -142 215q-147 0 -264 -66h-86l49 213q164 68 353 68q234 0 335.5 -113t47.5 -348l-146 -631h-96q-115 0 -148 102q-111 -114 -274 -114q-131 0 -211 75t-80 213zM287 297q0 -59 30.5 -91t88.5 -32q50 0 89 20 t80 60l46 205q-66 16 -129 16q-99 0 -152 -49t-53 -129zM338 1151v76l217 207h205l147 -207v-76h-168l-104 96l-146 -96h-151z" />
<glyph unicode="&#xe3;" horiz-adv-x="1042" d="M6 276q0 173 126.5 272t340.5 99q112 0 186 -24l9 39q50 215 -142 215q-147 0 -264 -66h-86l49 213q164 68 353 68q234 0 335.5 -113t47.5 -348l-146 -631h-96q-115 0 -148 102q-111 -114 -274 -114q-131 0 -211 75t-80 213zM287 297q0 -59 30.5 -91t88.5 -32q50 0 89 20 t80 60l46 205q-66 16 -129 16q-99 0 -152 -49t-53 -129zM319 1155v78q65 192 226 192q54 0 124.5 -26.5t90.5 -26.5q26 0 42 13.5t29 41.5h154v-77q-65 -193 -225 -193q-54 0 -123.5 28.5t-89.5 28.5q-53 0 -74 -59h-154z" />
<glyph unicode="&#xe4;" horiz-adv-x="1042" d="M6 276q0 173 126.5 272t340.5 99q112 0 186 -24l9 39q50 215 -142 215q-147 0 -264 -66h-86l49 213q164 68 353 68q234 0 335.5 -113t47.5 -348l-146 -631h-96q-115 0 -148 102q-111 -114 -274 -114q-131 0 -211 75t-80 213zM287 297q0 -59 30.5 -91t88.5 -32q50 0 89 20 t80 60l46 205q-66 16 -129 16q-99 0 -152 -49t-53 -129zM301 1305q0 65 48 110t114 45q63 0 104 -42.5t41 -102.5q0 -66 -49 -111t-115 -45q-63 0 -103 42.5t-40 103.5zM694 1305q0 65 48 110t114 45q63 0 104 -42.5t41 -102.5q0 -66 -48.5 -111t-114.5 -45 q-63 0 -103.5 42.5t-40.5 103.5z" />
<glyph unicode="&#xe5;" horiz-adv-x="1042" d="M6 276q0 173 126.5 272t340.5 99q112 0 186 -24l9 39q50 215 -142 215q-147 0 -264 -66h-86l49 213q164 68 353 68q234 0 335.5 -113t47.5 -348l-146 -631h-96q-115 0 -148 102q-111 -114 -274 -114q-131 0 -211 75t-80 213zM287 297q0 -59 30.5 -91t88.5 -32q50 0 89 20 t80 60l46 205q-66 16 -129 16q-99 0 -152 -49t-53 -129zM444 1352q0 97 66.5 158t157.5 61q89 0 147.5 -53.5t58.5 -143.5q0 -96 -65.5 -155.5t-157.5 -59.5q-89 0 -148 52.5t-59 140.5zM586 1354q0 -31 17.5 -49.5t49.5 -18.5q36 0 59 24t23 62q0 34 -19.5 53t-51.5 19 q-35 0 -56.5 -24.5t-21.5 -65.5z" />
<glyph unicode="&#xe6;" horiz-adv-x="1638" d="M6 276q0 174 126.5 274.5t340.5 100.5h193l2 11q50 215 -142 215q-147 0 -264 -66h-86l49 213q164 68 353 68q227 0 305 -123q149 123 340 123q186 0 279 -103t91 -284q0 -113 -34 -234h-635v-41q0 -126 50.5 -180.5t155.5 -54.5q146 0 265 75h96l-45 -200 q-160 -84 -348 -84q-275 0 -393 172q-142 -170 -381 -170q-150 0 -234 74.5t-84 213.5zM287 297q0 -59 30.5 -91t88.5 -32q69 0 132.5 35t106.5 92q-12 58 -12 125v45h-141q-99 0 -152 -47t-53 -127zM948 651h379q8 39 8 80q0 85 -35.5 127.5t-99.5 42.5q-91 0 -155.5 -66.5 t-96.5 -183.5z" />
<glyph unicode="&#xe7;" horiz-adv-x="991" d="M55 428q0 145 50 269.5t136.5 210.5t205.5 135t255 49q195 0 316 -91l-45 -192h-109q-54 65 -170 65q-154 0 -249 -126.5t-95 -317.5q0 -231 211 -231q115 0 209 63h111l-47 -203q-115 -73 -295 -73h-31l-8 -35q65 -3 99 -39.5t34 -93.5q0 -49 -19.5 -85t-54 -55 t-73.5 -27.5t-85 -8.5q-111 0 -170 41l27 114h59q17 -28 72 -28q64 0 64 38q0 37 -66 37h-53l37 160q-157 38 -236.5 148t-79.5 276z" />
<glyph unicode="&#xe8;" horiz-adv-x="1054" d="M49 426q0 131 40 251t112 212.5t182 147.5t240 55q191 0 290 -104t97 -283q0 -109 -35 -234h-635v-41q0 -126 51 -180.5t156 -54.5q145 0 264 75h96l-47 -207q-140 -77 -346 -77q-224 0 -344.5 112.5t-120.5 327.5zM365 651h378q9 43 9 80q0 84 -39.5 127t-108.5 43 q-87 0 -148 -66.5t-91 -183.5zM373 1348v86h282l78 -220v-63h-180z" />
<glyph unicode="&#xe9;" horiz-adv-x="1054" d="M49 426q0 131 40 251t112 212.5t182 147.5t240 55q191 0 290 -104t97 -283q0 -109 -35 -234h-635v-41q0 -126 51 -180.5t156 -54.5q145 0 264 75h96l-47 -207q-140 -77 -346 -77q-224 0 -344.5 112.5t-120.5 327.5zM365 651h378q9 43 9 80q0 84 -39.5 127t-108.5 43 q-87 0 -148 -66.5t-91 -183.5zM543 1151v63l106 220h291v-86l-235 -197h-162z" />
<glyph unicode="&#xea;" horiz-adv-x="1054" d="M49 426q0 131 40 251t112 212.5t182 147.5t240 55q191 0 290 -104t97 -283q0 -109 -35 -234h-635v-41q0 -126 51 -180.5t156 -54.5q145 0 264 75h96l-47 -207q-140 -77 -346 -77q-224 0 -344.5 112.5t-120.5 327.5zM356 1151v76l217 207h205l148 -207v-76h-168l-105 96 l-145 -96h-152zM365 651h378q9 43 9 80q0 84 -39.5 127t-108.5 43q-87 0 -148 -66.5t-91 -183.5z" />
<glyph unicode="&#xeb;" horiz-adv-x="1054" d="M49 426q0 131 40 251t112 212.5t182 147.5t240 55q191 0 290 -104t97 -283q0 -109 -35 -234h-635v-41q0 -126 51 -180.5t156 -54.5q145 0 264 75h96l-47 -207q-140 -77 -346 -77q-224 0 -344.5 112.5t-120.5 327.5zM313 1305q0 65 48 110t114 45q63 0 104.5 -42.5 t41.5 -102.5q0 -66 -49 -111t-115 -45q-63 0 -103.5 42.5t-40.5 103.5zM365 651h378q9 43 9 80q0 84 -39.5 127t-108.5 43q-87 0 -148 -66.5t-91 -183.5zM707 1305q0 65 48 110t113 45q63 0 104.5 -42.5t41.5 -102.5q0 -66 -49 -111t-115 -45q-63 0 -103 42.5t-40 103.5z " />
<glyph unicode="&#xec;" horiz-adv-x="532" d="M-6 0l246 1075h163q31 0 50 -4t34 -15.5t19.5 -33t2 -57t-14.5 -86.5l-201 -879h-299zM125 1348v86h283l77 -220v-63h-180z" />
<glyph unicode="&#xed;" horiz-adv-x="532" d="M-6 0l246 1075h163q31 0 50 -4t34 -15.5t19.5 -33t2 -57t-14.5 -86.5l-201 -879h-299zM295 1151v63l106 220h291v-86l-235 -197h-162z" />
<glyph unicode="&#xee;" horiz-adv-x="532" d="M-6 0l246 1075h163q31 0 50 -4t34 -15.5t19.5 -33t2 -57t-14.5 -86.5l-201 -879h-299zM102 1151v76l217 207h205l148 -207v-76h-168l-105 96l-145 -96h-152z" />
<glyph unicode="&#xef;" horiz-adv-x="532" d="M-6 0l246 1075h163q31 0 50 -4t34 -15.5t19.5 -33t2 -57t-14.5 -86.5l-201 -879h-299zM66 1305q0 65 48 110t113 45q63 0 104.5 -42.5t41.5 -102.5q0 -66 -49 -111t-115 -45q-63 0 -103 42.5t-40 103.5zM459 1305q0 65 48 110t114 45q63 0 104 -42.5t41 -102.5 q0 -66 -49 -111t-115 -45q-63 0 -103 42.5t-40 103.5z" />
<glyph unicode="&#xf0;" horiz-adv-x="1167" d="M55 438q0 130 43 244.5t113 190.5t158 119.5t178 43.5q151 0 225 -90q-40 104 -135 180l-51 -43h-178v50l92 77q-66 25 -97 33l46 191h100q75 -20 149 -56l62 54h176v-50l-100 -86q134 -103 205 -255t71 -345q0 -173 -44 -309t-122.5 -222.5t-185 -131.5t-234.5 -45 q-224 0 -347.5 122t-123.5 328zM348 422q0 -108 47.5 -167.5t141.5 -59.5q68 0 122.5 37t88 97.5t51.5 134t18 150.5q0 107 -51.5 163.5t-142.5 56.5q-88 0 -152 -59t-93.5 -150.5t-29.5 -202.5z" />
<glyph unicode="&#xf1;" horiz-adv-x="1171" d="M-8 0l246 1075h98q81 0 117 -36t39 -103q95 75 188 115.5t211 40.5q130 0 194 -99t27 -264l-168 -729h-199q-54 0 -69 27.5t2 105.5l133 596q26 125 -74 125q-114 0 -274 -98l-172 -756h-299zM395 1155v78q65 192 226 192q54 0 124.5 -26.5t90.5 -26.5q26 0 42 13.5 t29 41.5h154v-77q-65 -193 -225 -193q-54 0 -123.5 28.5t-89.5 28.5q-53 0 -74 -59h-154z" />
<glyph unicode="&#xf2;" d="M55 438q0 145 47.5 269t128 207.5t187 130.5t223.5 47q221 0 345 -125.5t124 -335.5q0 -194 -77.5 -341.5t-209.5 -224.5t-297 -77q-222 0 -346.5 120.5t-124.5 329.5zM348 432q0 -237 189 -237q87 0 152.5 63.5t96.5 162.5t31 216q0 242 -184 242q-85 0 -151.5 -65.5 t-100 -166.5t-33.5 -215zM410 1348v86h282l78 -220v-63h-180z" />
<glyph unicode="&#xf3;" d="M55 438q0 145 47.5 269t128 207.5t187 130.5t223.5 47q221 0 345 -125.5t124 -335.5q0 -194 -77.5 -341.5t-209.5 -224.5t-297 -77q-222 0 -346.5 120.5t-124.5 329.5zM348 432q0 -237 189 -237q87 0 152.5 63.5t96.5 162.5t31 216q0 242 -184 242q-85 0 -151.5 -65.5 t-100 -166.5t-33.5 -215zM580 1151v63l106 220h291v-86l-236 -197h-161z" />
<glyph unicode="&#xf4;" d="M55 438q0 145 47.5 269t128 207.5t187 130.5t223.5 47q221 0 345 -125.5t124 -335.5q0 -194 -77.5 -341.5t-209.5 -224.5t-297 -77q-222 0 -346.5 120.5t-124.5 329.5zM348 432q0 -237 189 -237q87 0 152.5 63.5t96.5 162.5t31 216q0 242 -184 242q-85 0 -151.5 -65.5 t-100 -166.5t-33.5 -215zM387 1151v76l217 207h205l147 -207v-76h-168l-104 96l-145 -96h-152z" />
<glyph unicode="&#xf5;" d="M55 438q0 145 47.5 269t128 207.5t187 130.5t223.5 47q221 0 345 -125.5t124 -335.5q0 -194 -77.5 -341.5t-209.5 -224.5t-297 -77q-222 0 -346.5 120.5t-124.5 329.5zM348 432q0 -237 189 -237q87 0 152.5 63.5t96.5 162.5t31 216q0 242 -184 242q-85 0 -151.5 -65.5 t-100 -166.5t-33.5 -215zM369 1155v78q65 192 225 192q54 0 124.5 -26.5t90.5 -26.5q47 0 72 55h153v-77q-65 -193 -225 -193q-54 0 -123.5 28.5t-89.5 28.5q-53 0 -74 -59h-153z" />
<glyph unicode="&#xf6;" d="M55 438q0 145 47.5 269t128 207.5t187 130.5t223.5 47q221 0 345 -125.5t124 -335.5q0 -194 -77.5 -341.5t-209.5 -224.5t-297 -77q-222 0 -346.5 120.5t-124.5 329.5zM348 432q0 -237 189 -237q87 0 152.5 63.5t96.5 162.5t31 216q0 242 -184 242q-85 0 -151.5 -65.5 t-100 -166.5t-33.5 -215zM350 1305q0 65 48 110t114 45q63 0 104 -42.5t41 -102.5q0 -66 -48.5 -111t-114.5 -45q-63 0 -103.5 42.5t-40.5 103.5zM743 1305q0 65 48 110t114 45q63 0 104.5 -42.5t41.5 -102.5q0 -66 -49 -111t-115 -45q-63 0 -103.5 42.5t-40.5 103.5z" />
<glyph unicode="&#xf7;" horiz-adv-x="1042" d="M45 590l55 235h977l-55 -235h-977zM324 336q0 71 53 120.5t125 49.5q70 0 116 -47t46 -113q0 -72 -54.5 -121t-126.5 -49q-69 0 -114 46.5t-45 113.5zM457 1069q0 71 53 120.5t125 49.5q70 0 116 -47t46 -113q0 -72 -54.5 -121t-126.5 -49q-69 0 -114 46.5t-45 113.5z " />
<glyph unicode="&#xf8;" d="M18 4l125 143q-88 117 -88 291q0 145 47.5 269t128 207.5t187 130.5t223.5 47q153 0 262 -64l72 82h172v-55l-119 -137q82 -118 82 -287q0 -194 -77.5 -341.5t-209.5 -224.5t-297 -77q-152 0 -256 55l-82 -94h-170v55zM338 432q0 -39 2 -55l408 471q-44 33 -115 33 q-87 0 -156 -66t-104 -167.5t-35 -215.5zM422 219q45 -26 115 -26q90 0 157 64t99 163t32 217q0 8 -1 23t-1 22z" />
<glyph unicode="&#xf9;" d="M61 346l170 729h199q54 0 69.5 -27.5t-1.5 -105.5l-133 -596q-27 -127 73 -127q104 0 252 92l174 764h299l-245 -1075h-78q-156 0 -170 141q-95 -76 -181.5 -116.5t-193.5 -40.5q-143 0 -208.5 95.5t-25.5 266.5zM438 1348v86h283l78 -220v-63h-181z" />
<glyph unicode="&#xfa;" d="M61 346l170 729h199q54 0 69.5 -27.5t-1.5 -105.5l-133 -596q-27 -127 73 -127q104 0 252 92l174 764h299l-245 -1075h-78q-156 0 -170 141q-95 -76 -181.5 -116.5t-193.5 -40.5q-143 0 -208.5 95.5t-25.5 266.5zM608 1151v63l107 220h291v-86l-236 -197h-162z" />
<glyph unicode="&#xfb;" d="M61 346l170 729h199q54 0 69.5 -27.5t-1.5 -105.5l-133 -596q-27 -127 73 -127q104 0 252 92l174 764h299l-245 -1075h-78q-156 0 -170 141q-95 -76 -181.5 -116.5t-193.5 -40.5q-143 0 -208.5 95.5t-25.5 266.5zM416 1151v76l217 207h205l147 -207v-76h-168l-104 96 l-146 -96h-151z" />
<glyph unicode="&#xfc;" d="M61 346l170 729h199q54 0 69.5 -27.5t-1.5 -105.5l-133 -596q-27 -127 73 -127q104 0 252 92l174 764h299l-245 -1075h-78q-156 0 -170 141q-95 -76 -181.5 -116.5t-193.5 -40.5q-143 0 -208.5 95.5t-25.5 266.5zM379 1305q0 65 48 110t114 45q63 0 104 -42.5t41 -102.5 q0 -66 -49 -111t-115 -45q-63 0 -103 42.5t-40 103.5zM772 1305q0 65 48 110t114 45q63 0 104 -42.5t41 -102.5q0 -66 -49 -111t-115 -45q-63 0 -103 42.5t-40 103.5z" />
<glyph unicode="&#xfd;" horiz-adv-x="1060" d="M35 -252l248 367l-156 882v78h281l98 -641h4l358 641h246v-78l-807 -1329h-272v80zM541 1151v63l106 220h291v-86l-236 -197h-161z" />
<glyph unicode="&#xfe;" horiz-adv-x="1179" d="M-82 -332l401 1766h183q32 0 50.5 -6.5t30.5 -24t11.5 -51t-12.5 -86.5l-70 -310q139 136 328 136q60 0 112 -23t94 -69t66.5 -125t24.5 -181q0 -320 -153 -501t-400 -181q-168 0 -265 90l-98 -434h-303zM356 272q65 -61 170 -61q152 0 233 130.5t81 346.5 q0 88 -36.5 135t-98.5 47q-102 0 -234 -92z" />
<glyph unicode="&#xff;" horiz-adv-x="1060" d="M35 -252l248 367l-156 882v78h281l98 -641h4l358 641h246v-78l-807 -1329h-272v80zM311 1305q0 65 48 110t114 45q63 0 104 -42.5t41 -102.5q0 -66 -48.5 -111t-114.5 -45q-63 0 -103.5 42.5t-40.5 103.5zM705 1305q0 65 48 110t113 45q63 0 104.5 -42.5t41.5 -102.5 q0 -66 -49 -111t-115 -45q-63 0 -103 42.5t-40 103.5z" />
<glyph unicode="&#x152;" horiz-adv-x="1976" d="M92 571q0 130 31.5 253.5t97 234.5t158.5 194t225.5 132t288.5 49h1182l-54 -232h-594l-84 -364h439l-51 -220h-439l-90 -393h641l-51 -225h-1057q-329 0 -486 142.5t-157 428.5zM420 571q0 -64 7.5 -112.5t28 -94t55.5 -75t93 -47t137 -17.5h142l225 979h-207 q-108 0 -194 -41.5t-138.5 -106.5t-87 -151.5t-48 -168.5t-13.5 -165z" />
<glyph unicode="&#x153;" horiz-adv-x="1804" d="M55 438q0 145 47.5 269t128 207.5t187 130.5t223.5 47q127 0 216.5 -50t137.5 -143q146 193 394 193q186 0 279 -103t91 -284q0 -109 -35 -234h-634v-41q0 -126 50.5 -180.5t155.5 -54.5q146 0 265 75h96l-45 -200q-160 -84 -348 -84q-266 0 -359 182 q-148 -180 -379 -180q-222 0 -346.5 120.5t-124.5 329.5zM348 432q0 -237 189 -237q87 0 152.5 63.5t96.5 162.5t31 216q0 242 -184 242q-85 0 -151.5 -65.5t-100 -166.5t-33.5 -215zM1114 651h379q8 39 8 80q0 85 -35.5 127.5t-99.5 42.5q-91 0 -155.5 -66.5t-96.5 -183.5z " />
<glyph unicode="&#x178;" horiz-adv-x="1212" d="M219 1343v91h297l180 -594h4l430 594h244v-91l-590 -798l-125 -545h-319l133 575zM508 1624q0 65 48.5 110.5t113.5 45.5q63 0 104 -43t41 -103q0 -66 -49 -110.5t-115 -44.5q-63 0 -103 42t-40 103zM901 1624q0 65 48.5 110.5t113.5 45.5q63 0 104 -43t41 -103 q0 -66 -49 -110.5t-115 -44.5q-63 0 -103 42t-40 103z" />
<glyph unicode="&#x2c6;" horiz-adv-x="819" d="M287 1151v76l217 207h205l147 -207v-76h-168l-104 96l-146 -96h-151z" />
<glyph unicode="&#x2dc;" horiz-adv-x="819" d="M238 1155v78q65 192 225 192q54 0 124.5 -26.5t90.5 -26.5q47 0 72 55h153v-77q-65 -193 -225 -193q-54 0 -123.5 28.5t-89.5 28.5q-53 0 -74 -59h-153z" />
<glyph unicode="&#x2000;" horiz-adv-x="947" />
<glyph unicode="&#x2001;" horiz-adv-x="1894" />
<glyph unicode="&#x2002;" horiz-adv-x="947" />
<glyph unicode="&#x2003;" horiz-adv-x="1894" />
<glyph unicode="&#x2004;" horiz-adv-x="631" />
<glyph unicode="&#x2005;" horiz-adv-x="473" />
<glyph unicode="&#x2006;" horiz-adv-x="315" />
<glyph unicode="&#x2007;" horiz-adv-x="315" />
<glyph unicode="&#x2008;" horiz-adv-x="236" />
<glyph unicode="&#x2009;" horiz-adv-x="378" />
<glyph unicode="&#x200a;" horiz-adv-x="105" />
<glyph unicode="&#x2010;" horiz-adv-x="579" d="M43 487l57 244h473l-57 -244h-473z" />
<glyph unicode="&#x2011;" horiz-adv-x="579" d="M43 487l57 244h473l-57 -244h-473z" />
<glyph unicode="&#x2012;" horiz-adv-x="579" d="M43 487l57 244h473l-57 -244h-473z" />
<glyph unicode="&#x2013;" horiz-adv-x="935" d="M82 463l53 231h739l-53 -231h-739z" />
<glyph unicode="&#x2014;" horiz-adv-x="1570" d="M82 463l53 231h1374l-53 -231h-1374z" />
<glyph unicode="&#x2018;" horiz-adv-x="374" d="M160 1087q0 161 108.5 253t292.5 100l-31 -133q-64 -6 -102.5 -25.5t-38.5 -48.5q0 -7 1 -12t6 -10.5t7.5 -7t12.5 -8.5t14 -9q49 -32 49 -96q0 -70 -48 -116t-114 -46q-67 0 -112 44t-45 115z" />
<glyph unicode="&#x2019;" horiz-adv-x="374" d="M117 936l28 133q65 6 104.5 25.5t39.5 48.5q0 7 -1 12t-6 10.5t-7.5 7t-12.5 8.5t-14 9q-49 32 -49 96q0 70 47.5 116t113.5 46q67 0 112.5 -44.5t45.5 -115.5q0 -161 -108.5 -252.5t-292.5 -99.5z" />
<glyph unicode="&#x201a;" horiz-adv-x="374" d="M-131 -203l31 133q64 6 102.5 25.5t38.5 48.5q0 7 -1 12t-6 10.5t-7.5 7t-12.5 8.5t-14 9q-49 32 -49 96q0 70 48 116t114 46q67 0 112 -44t45 -115q0 -161 -108.5 -253t-292.5 -100z" />
<glyph unicode="&#x201c;" horiz-adv-x="794" d="M160 1087q0 161 108.5 253t292.5 100l-31 -133q-64 -6 -102.5 -25.5t-38.5 -48.5q0 -7 1 -12t6 -10.5t7.5 -7t12.5 -8.5t14 -9q49 -32 49 -96q0 -70 -48 -116t-114 -46q-67 0 -112 44t-45 115zM559 1087q0 161 109 253t293 100l-31 -133q-64 -6 -103 -25.5t-39 -48.5 q0 -7 1 -12t6 -10.5t7.5 -7t12.5 -8.5t14 -9q50 -32 50 -96q0 -70 -48 -116t-114 -46q-67 0 -112.5 44t-45.5 115z" />
<glyph unicode="&#x201d;" horiz-adv-x="774" d="M117 936l30 133q64 6 103 25.5t39 48.5q0 7 -1 12t-6 10.5t-7.5 7t-12.5 8.5t-14 9q-49 32 -49 96q0 70 47.5 116t113.5 46q67 0 112.5 -44.5t45.5 -115.5q0 -161 -108.5 -252.5t-292.5 -99.5zM516 936l31 133q64 6 102.5 25.5t38.5 48.5q0 7 -1 12t-6 10.5t-7.5 7 t-12.5 8.5t-14 9q-49 32 -49 96q0 70 48 116t114 46q67 0 112.5 -44.5t45.5 -115.5q0 -161 -109 -252.5t-293 -99.5z" />
<glyph unicode="&#x201e;" horiz-adv-x="774" d="M-131 -203l31 133q64 6 102.5 25.5t38.5 48.5q0 7 -1 12t-6 10.5t-7.5 7t-12.5 8.5t-14 9q-49 32 -49 96q0 70 48 116t114 46q67 0 112 -44t45 -115q0 -161 -108.5 -253t-292.5 -100zM268 -203l31 133q64 6 102.5 25.5t38.5 48.5q0 7 -1 12t-6 10.5t-7.5 7t-12.5 8.5 t-14 9q-49 32 -49 96q0 70 48 116t114 46q67 0 112.5 -44t45.5 -115q0 -161 -109 -253t-293 -100z" />
<glyph unicode="&#x2022;" horiz-adv-x="655" d="M51 547q0 136 89.5 219.5t219.5 83.5q110 0 185.5 -68.5t75.5 -181.5q0 -138 -88 -220.5t-220 -82.5q-111 0 -186.5 68t-75.5 182z" />
<glyph unicode="&#x2026;" horiz-adv-x="1345" d="M-45 152q0 69 49 117t119 48q69 0 118.5 -48t49.5 -117t-49.5 -116.5t-118.5 -47.5q-71 0 -119.5 47.5t-48.5 116.5zM422 152q0 69 49 117t119 48q69 0 118.5 -48t49.5 -117t-49.5 -116.5t-118.5 -47.5q-71 0 -119.5 47.5t-48.5 116.5zM889 152q0 69 49 117t119 48 q69 0 118.5 -48t49.5 -117t-49.5 -116.5t-118.5 -47.5q-71 0 -119.5 47.5t-48.5 116.5z" />
<glyph unicode="&#x202f;" horiz-adv-x="378" />
<glyph unicode="&#x2039;" horiz-adv-x="622" d="M61 489l27 117l326 377h241v-65l-331 -398v-6l139 -367v-65h-238z" />
<glyph unicode="&#x203a;" horiz-adv-x="622" d="M-27 82v65l332 398v6l-139 367v65h237l164 -408l-26 -116l-326 -377h-242z" />
<glyph unicode="&#x205f;" horiz-adv-x="473" />
<glyph unicode="&#x20ac;" horiz-adv-x="1222" d="M37 483l41 179h100q6 57 21 112h-95l41 178h111q47 107 114.5 196t156.5 157.5t204 106.5t246 38q123 0 207 -21.5t153 -66.5l-49 -211h-114q-44 38 -94.5 54t-121.5 16q-133 0 -230 -71.5t-157 -197.5h400l-66 -178h-395q-12 -54 -18 -112h368l-65 -179h-312 q4 -146 69 -210t196 -64q151 0 276 92h104l-49 -223q-157 -94 -362 -94q-116 0 -212.5 30t-171 90t-118 156.5t-47.5 222.5h-131z" />
<glyph unicode="&#x2122;" horiz-adv-x="1400" d="M233 1311l29 123h500l-29 -123h-166l-104 -451h-170l104 451h-164zM711 860l133 574h252l18 -312h2l164 312h260l-133 -574h-166l102 436h-2l-235 -436h-121l-29 436h-2l-102 -436h-141z" />
<glyph unicode="&#x25fc;" horiz-adv-x="1075" d="M0 0v1075h1075v-1075h-1075z" />
<glyph unicode="&#xfb01;" horiz-adv-x="1189" d="M45 0l191 874h-127l43 201h127l18 82q68 297 375 297q103 0 166 -24l-39 -183h-45q-73 0 -110 -20.5t-50 -79.5l-16 -72h184l-43 -201h-187l-196 -874h-291zM651 0l246 1075h164q38 0 59.5 -6.5t35 -27t12 -59.5t-16.5 -103l-201 -879h-299zM938 1313q0 68 50.5 115 t119.5 47q66 0 110 -44.5t44 -107.5q0 -69 -51.5 -115.5t-120.5 -46.5q-66 0 -109 44t-43 108z" />
<glyph unicode="&#xfb02;" horiz-adv-x="1196" d="M45 0l191 874h-127l43 201h127l18 82q68 297 375 297q103 0 166 -24l-39 -183h-45q-73 0 -110 -20.5t-50 -79.5l-16 -72h184l-43 -201h-187l-196 -874h-291zM651 0l328 1434h180q32 0 50.5 -6.5t30.5 -24t11.5 -51t-12.5 -86.5l-289 -1266h-299z" />
</font>
</defs>
</svg>
