<?xml version="1.0" encoding="utf-8"?>
<!-- Generator: Adobe Illustrator 18.0.0, SVG Export Plug-In . SVG Version: 6.00 Build 0)  -->
<!DOCTYPE svg PUBLIC "-//W3C//DTD SVG 1.1//EN" "http://www.w3.org/Graphics/SVG/1.1/DTD/svg11.dtd">
<svg version="1.1" id="Camada_1" xmlns="http://www.w3.org/2000/svg" xmlns:xlink="http://www.w3.org/1999/xlink" x="0px" y="0px"
	 viewBox="0 0 37 37" enable-background="new 0 0 37 37" xml:space="preserve">
<path fill="#461D07" d="M18.5,0C8.3,0,0,8.3,0,18.5C0,28.7,8.3,37,18.5,37C28.7,37,37,28.7,37,18.5C37,8.3,28.7,0,18.5,0z
	 M18.5,34.6c-8.9,0-16.1-7.2-16.1-16.1S9.6,2.4,18.5,2.4c8.9,0,16.1,7.2,16.1,16.1S27.4,34.6,18.5,34.6z"/>
<path fill="#461D07" d="M25.9,17.3h-6.1v-6.1c0-0.7-0.5-1.2-1.2-1.2c-0.7,0-1.2,0.5-1.2,1.2v6.1h-6.1c-0.7,0-1.2,0.5-1.2,1.2
	c0,0.7,0.5,1.2,1.2,1.2h6.1v6.1c0,0.7,0.5,1.2,1.2,1.2c0.7,0,1.2-0.5,1.2-1.2v-6.1h6.1c0.7,0,1.2-0.5,1.2-1.2
	C27.1,17.8,26.5,17.3,25.9,17.3z"/>
</svg>
