<?xml version="1.0" encoding="utf-8"?>
<!-- Generator: Adobe Illustrator 18.0.0, SVG Export Plug-In . SVG Version: 6.00 Build 0)  -->
<!DOCTYPE svg PUBLIC "-//W3C//DTD SVG 1.1//EN" "http://www.w3.org/Graphics/SVG/1.1/DTD/svg11.dtd">
<svg version="1.1" id="Camada_1" xmlns="http://www.w3.org/2000/svg" xmlns:xlink="http://www.w3.org/1999/xlink" x="0px" y="0px"
	 viewBox="0 0 49.7 45.8" enable-background="new 0 0 49.7 45.8" xml:space="preserve">
<circle fill="#F7F7F7" cx="22.4" cy="27.8" r="18"/>
<path fill="#441C07" d="M46.7,0c-1.7,0-3,1.3-3,3c0,11.8-9.6,21.4-21.4,21.4c-0.1,0-0.1,0-0.2,0l3.5-3.5c0.6-0.6,0.9-1.4,0.9-2.1
	c0-0.8-0.3-1.5-0.9-2.1c-1.2-1.2-3.1-1.2-4.2,0L10.6,27.4l10.7,10.7c1.2,1.2,3.1,1.2,4.2,0c1.2-1.2,1.2-3.1,0-4.2l-3.5-3.5
	c0.1,0,0.1,0,0.2,0c15.1,0,27.4-12.3,27.4-27.4C49.7,1.3,48.3,0,46.7,0z M19.3,27.6l-0.2-0.2l0.2-0.2c0,0.1,0,0.1,0,0.2
	C19.3,27.5,19.3,27.5,19.3,27.6z"/>
<g>
	<path fill="#3B1B08" d="M0.7,3.8V3.4h1.5l2.3,6.3h0l2.2-6.3h1.4v0.5l-2.9,7.8H3.7L0.7,3.8z"/>
	<path fill="#3B1B08" d="M8.9,7.5c0-2.6,1.7-4.3,4-4.3c2.2,0,4,1.6,4,4.3c0,2.6-1.7,4.2-4,4.2C10.6,11.7,8.9,10.2,8.9,7.5z
		 M15.2,7.5c0-2-0.9-3.1-2.3-3.1c-1.4,0-2.3,1.1-2.3,3.1c0,2,0.9,3,2.3,3C14.3,10.5,15.2,9.5,15.2,7.5z"/>
	<path fill="#3B1B08" d="M18.4,11.6V0.6h0.9c0.6,0,0.7,0.2,0.7,1.1v10H18.4z"/>
	<path fill="#3B1B08" d="M21.5,3.4h1V1.1h1.6v2.2h1.8v1.1h-1.8v4.9c0,0.9,0.4,1.1,1.2,1.1H26v1c-0.3,0.1-0.8,0.2-1.3,0.2
		c-1.4,0-2.2-0.6-2.2-2.1V4.5h-1V3.4z"/>
	<path fill="#3B1B08" d="M32,10.7c-0.6,0.7-1.4,1-2.5,1c-1.5,0-2.6-0.9-2.6-2.5c0-1.7,1.3-2.5,3.2-2.5c0.7,0,1.2,0.1,1.8,0.2V5.9
		c0-1-0.6-1.4-1.7-1.4c-1,0-1.7,0.3-2.3,0.7h-0.5V4c0.7-0.4,1.6-0.7,3-0.7c2,0,3.1,0.7,3.1,2.5v5.9h-0.6
		C32.3,11.6,32.1,11.5,32,10.7z M31.9,9.7V7.9c-0.5-0.1-1-0.2-1.5-0.2c-1.1,0-1.9,0.4-1.9,1.4c0,1,0.6,1.5,1.5,1.5
		C30.9,10.6,31.5,10.2,31.9,9.7z"/>
	<path fill="#3B1B08" d="M37.2,5.6v6h-1.6V3.4h1c0.4,0,0.6,0.2,0.6,1.1c0.6-0.6,1.3-1.2,2.4-1.2c0.2,0,0.3,0,0.4,0.1v1.3
		c0,0-0.3,0-0.4,0C38.6,4.7,37.8,5.1,37.2,5.6z"/>
</g>
</svg>
