<?xml version="1.0" encoding="utf-8"?>
<!-- Generator: Adobe Illustrator 18.0.0, SVG Export Plug-In . SVG Version: 6.00 Build 0)  -->
<!DOCTYPE svg PUBLIC "-//W3C//DTD SVG 1.1//EN" "http://www.w3.org/Graphics/SVG/1.1/DTD/svg11.dtd">
<svg version="1.1" id="Camada_1" xmlns="http://www.w3.org/2000/svg" xmlns:xlink="http://www.w3.org/1999/xlink" x="0px" y="0px"
	 viewBox="139.5 398.8 163.5 44.3" enable-background="new 139.5 398.8 163.5 44.3" xml:space="preserve">
<path fill="#D53A73" d="M300,443.1H142.5c-1.6,0-3-1.4-3-3v-38.3c0-1.6,1.4-3,3-3H300c1.6,0,3,1.4,3,3v38.3
	C303,441.7,301.6,443.1,300,443.1z"/>
<g>
	<path fill="#FFFFFF" d="M222.8,427.6c1.1,0.7,2.5,1.3,4.2,1.3c2.2,0,4.3-1.3,4.3-3.7c0-1.5-0.8-2.5-2.9-3.7
		c-2.5-1.3-3.9-2.9-3.9-5.1c0-3.5,3.1-5.8,6.7-5.8c1.9,0,3.3,0.6,4,1.1l-0.9,2c-0.6-0.4-1.8-0.9-3.4-0.9c-2.4,0-3.9,1.6-3.9,3.2
		c0,1.6,1,2.5,3.1,3.7c2.4,1.3,3.8,2.8,3.8,5.3c0,3.4-2.7,6.1-7.1,6.1c-2,0-3.9-0.6-4.8-1.3L222.8,427.6z"/>
	<path fill="#FFFFFF" d="M234.7,430.6l2.7-14.2h2.4l-2.7,14.2H234.7z M237.9,412.5c0-0.9,0.7-1.6,1.6-1.6s1.4,0.6,1.4,1.5
		c0,1-0.7,1.6-1.6,1.6C238.4,414,237.9,413.4,237.9,412.5"/>
	<path fill="#FFFFFF" d="M247,412.7l-0.7,3.8h3.4l-0.4,1.9h-3.4l-1.3,6.9c-0.1,0.8-0.3,1.5-0.3,2.3c0,0.8,0.4,1.3,1.3,1.3
		c0.4,0,0.8,0,1.1-0.1l-0.1,1.9c-0.4,0.2-1.2,0.3-1.9,0.3c-2.2,0-3-1.3-3-2.8c0-0.8,0.1-1.6,0.3-2.7l1.4-7.2h-2.1l0.4-1.9h2l0.6-3.2
		L247,412.7z"/>
	<path fill="#FFFFFF" d="M258.6,429.8c-1.1,0.6-2.8,1.1-4.7,1.1c-3.8,0-5.4-2.5-5.4-5.7c0-4.3,3.2-9.1,7.7-9.1
		c2.7,0,4.2,1.6,4.2,3.6c0,3.7-4.2,4.7-9.4,4.6c-0.1,0.6,0,1.9,0.3,2.7c0.5,1.3,1.7,1.9,3.2,1.9c1.7,0,2.9-0.5,3.8-1L258.6,429.8z
		 M255.9,418.1c-2.3,0-4,2.2-4.6,4.5c3.8,0,6.8-0.5,6.8-2.7C258.1,418.7,257.2,418.1,255.9,418.1"/>
	<path fill="#FFFFFF" d="M261,428.2c0.7,0.4,1.9,0.9,3.1,0.9c1.6,0,2.7-1.1,2.7-2.3c0-1.1-0.5-1.8-2-2.6c-1.6-0.9-2.5-2.2-2.5-3.6
		c0-2.5,2.1-4.4,5.1-4.4c1.3,0,2.4,0.4,3,0.7l-0.7,1.8c-0.5-0.3-1.4-0.6-2.5-0.6c-1.5,0-2.5,0.9-2.5,2.1c0,1,0.7,1.7,1.9,2.4
		c1.6,0.9,2.7,2.1,2.7,3.7c0,3-2.4,4.7-5.4,4.7c-1.5,0-2.9-0.5-3.5-1L261,428.2z"/>
	<path fill="#333635" d="M191.4,430.5c-2,0.6-5.1,1.4-8.2,1.4c-2.9,0-5.7-0.7-7.7-2.2c-2-1.4-3.3-3.9-3.3-7.2c0-4,1.8-7.2,4.6-9.3
		c2.7-2,6.4-3.1,10.5-3.1c3.1,0,5.7,0.6,6.6,1l-1.6,4.7c-1-0.4-3-1-5.3-1c-2.1,0-4,0.5-5.5,1.4c-1.9,1.2-3.1,3.2-3.1,5.7
		c0,3.7,2.6,5.2,5.8,5.2c1.2,0,1.8-0.2,2.2-0.4l0.7-3.4h-3.3l0.9-4.5h8.9L191.4,430.5z"/>
	<path fill="#333635" d="M201.7,432c-5.7,0-10-3.5-10-9.6c0-3.7,1.4-6.8,3.7-9c2.3-2.2,5.5-3.4,9.1-3.4c5.8,0,10,3.4,10,9.7
		c0,3.7-1.3,6.8-3.6,9C208.7,430.7,205.5,432,201.7,432L201.7,432L201.7,432z M202.6,427.4c1.4,0,2.7-0.6,3.6-1.6
		c1.4-1.4,2.2-3.6,2.2-5.8c0-3.1-1.2-5.4-4.5-5.4c-1.5,0-2.8,0.6-3.8,1.6c-1.4,1.4-2.3,3.7-2.3,5.8
		C197.8,425.4,199.5,427.4,202.6,427.4L202.6,427.4z"/>
	<path fill="#333635" d="M216.5,432c-1.8,0-3-1.2-3-3c0-2.1,1.5-3.8,3.8-3.8c1.7,0,3.1,1.2,3.1,3.1C220.4,430.5,218.8,432,216.5,432
		L216.5,432L216.5,432z M215.6,424.2l1.8-14h5.9l-3.5,14H215.6z"/>
</g>
</svg>
