<?xml version="1.0" encoding="utf-8"?>
<!-- Generator: Adobe Illustrator 18.0.0, SVG Export Plug-In . SVG Version: 6.00 Build 0)  -->
<!DOCTYPE svg PUBLIC "-//W3C//DTD SVG 1.1//EN" "http://www.w3.org/Graphics/SVG/1.1/DTD/svg11.dtd">
<svg version="1.1" id="Camada_1" xmlns="http://www.w3.org/2000/svg" xmlns:xlink="http://www.w3.org/1999/xlink" x="0px" y="0px"
	 viewBox="0 0 32 134" enable-background="new 0 0 32 134" xml:space="preserve">
<path fill="#FFFFFF" d="M25,43.6c4.2-4.3,7-11.5,7-19.7C32,10.7,24.8,0,16,0C7.2,0,0,10.7,0,23.9C0,32,2.7,39.3,6.9,43.6
	c0,0.4,0,0.7-0.1,1c0,0.4,0.2,0.7,0.6,0.8c1.4,0.4,4.6,2,6.6,7c2.2,5.1-2.2,57.7-3.4,70.8c-0.3,3.3,1,7.9,5.3,10.8l0,0
	c4.3-2.9,5.6-7.6,5.3-10.8c-1.2-13.2-5.6-65.7-3.4-70.8c2-5,5.2-6.5,6.6-7c0.4-0.1,0.6-0.4,0.6-0.8C25.1,44.3,25.1,44,25,43.6z
	 M7.9,44.5c-0.4-0.1-0.6-0.4-0.6-0.8c0-0.2,0-0.5,0.1-0.9c-3.9-4-6.5-10.7-6.5-18.3c0.7,8.9,3.4,13.1,7.3,17.1C8.1,42,8,42.3,8,42.6
	c0,0.4,0.2,0.7,0.6,0.8c3.7,2.8,5,5,5.5,7.6C12.2,46.4,9.2,44.9,7.9,44.5z M19.7,125.6c0.5-2.2,0.1-6.4,0.1-6.4s0.3,0.8,0.5,3.4
	c0.3,3-0.6,7.2-4.2,10.2C18.6,129.6,19.4,127.5,19.7,125.6z M23.8,44.9c-1,0.3-3,1.2-4.8,3.6c1.9-2.9,4.2-4.1,5.4-4.5c0,0,0,0,0,0.1
	C24.4,44.5,24.2,44.8,23.8,44.9z M14.7,1.4c0.4-0.1,0.9-0.1,1.3-0.1c8.2,0,14.9,9.9,14.9,22.2c0,5.2-1.2,9.9-3.2,13.7
	c1.4-3.5,2.2-8.5,2.2-13C30,11.4,23.7,1.4,14.7,1.4z"/>
</svg>
