<?xml version="1.0" encoding="utf-8"?>
<!-- Generator: Adobe Illustrator 18.0.0, SVG Export Plug-In . SVG Version: 6.00 Build 0)  -->
<!DOCTYPE svg PUBLIC "-//W3C//DTD SVG 1.1//EN" "http://www.w3.org/Graphics/SVG/1.1/DTD/svg11.dtd">
<svg version="1.1" id="Camada_1" xmlns="http://www.w3.org/2000/svg" xmlns:xlink="http://www.w3.org/1999/xlink" x="0px" y="0px"
	 viewBox="0 0 25 36" enable-background="new 0 0 25 36" xml:space="preserve">
<path fill="#FFFFFF" d="M11.7,35.4c0.2,0.2,0.4,0.3,0.5,0.4l0,0l0.4,0.1l0.3-0.1l0,0c0.2-0.1,0.4-0.2,0.5-0.4
	c0,0,10.4-11.4,11.4-21.3c0.1-0.5,0.1-1,0.1-1.5C25,5.7,19.4,0,12.5,0C5.6,0,0,5.7,0,12.6c0,0.5,0,1.1,0.1,1.6
	C1.2,24.1,11.7,35.4,11.7,35.4z M12.5,4.5c4.4,0,8,3.6,8,8.1c0,4.5-3.6,8.1-8,8.1c-4.4,0-8-3.6-8-8.1C4.5,8.2,8.1,4.5,12.5,4.5z"/>
</svg>
