<?xml version="1.0" encoding="utf-8"?>
<!-- Generator: Adobe Illustrator 18.0.0, SVG Export Plug-In . SVG Version: 6.00 Build 0)  -->
<!DOCTYPE svg PUBLIC "-//W3C//DTD SVG 1.1//EN" "http://www.w3.org/Graphics/SVG/1.1/DTD/svg11.dtd">
<svg version="1.1" id="Camada_1" xmlns="http://www.w3.org/2000/svg" xmlns:xlink="http://www.w3.org/1999/xlink" x="0px" y="0px"
	 viewBox="0 0 57.5 56.8" enable-background="new 0 0 57.5 56.8" xml:space="preserve">
<path fill-rule="evenodd" clip-rule="evenodd" fill="#FFFFFF" d="M26.3,20.4h-0.7c-2.8,0-4.2-1.8-4.2-5.4c0-1.4,0.2-2.3,0.7-2.8
	c0.4-0.5,1.3-0.7,2.6-0.7h0.8c-0.4,1.2-0.6,2.3-0.6,3.3C24.8,16.8,25.3,18.6,26.3,20.4z M25.5,46.1h-0.9c-1.1,0-1.9-0.2-2.3-0.7
	c-0.4-0.5-0.6-1.4-0.6-2.7c0-3.6,1.3-5.5,4-5.5h0.8c-0.9,1.7-1.4,3.6-1.4,5.7C25.1,44,25.2,45,25.5,46.1z M32,44
	c-1.7,1-3.5,1.7-5.7,2C26.1,45,26,43.9,26,42.8c0-1.8,0.5-3.7,1.4-5.7h0.4c1.8,0,2.7-2.8,2.7-8.3c0-5.7-0.9-8.6-2.7-8.6h-0.4
	c-1.1-1.9-1.6-3.7-1.6-5.5c0-1.1,0.2-2.2,0.6-3.3c1.9,0.3,3.8,1,5.6,2c0.9,2.3,1.5,4.8,2,7.3c0.4,2.5,0.7,5.2,0.7,7.9
	c0,2.8-0.2,5.5-0.7,8C33.5,39.3,32.9,41.7,32,44z"/>
<path fill-rule="evenodd" clip-rule="evenodd" fill="none" stroke="#FFFFFF" stroke-miterlimit="10" d="M52,56H5.6c-2.8,0-5-2.3-5-5
	V5.6c0-2.8,2.3-5,5-5H52c2.8,0,5,2.3,5,5V51C57,53.8,54.8,56,52,56z"/>
</svg>
