<?xml version="1.0" encoding="utf-8"?>
<!-- Generator: Adobe Illustrator 18.0.0, SVG Export Plug-In . SVG Version: 6.00 Build 0)  -->
<!DOCTYPE svg PUBLIC "-//W3C//DTD SVG 1.1//EN" "http://www.w3.org/Graphics/SVG/1.1/DTD/svg11.dtd">
<svg version="1.1" id="icons" xmlns="http://www.w3.org/2000/svg" xmlns:xlink="http://www.w3.org/1999/xlink" x="0px" y="0px"
	 viewBox="0 0 64 64" enable-background="new 0 0 64 64" xml:space="preserve">
<g id="facebook">
	<g>
		<circle fill="#3B579D" cx="32" cy="32" r="32"/>
		<path opacity="0.15" d="M33.1,46.3l-6,6l11.1,11.1c13.1-2.6,23.4-13.2,25.4-26.5L41.1,14.4L22.9,36.1L33.1,46.3z"/>
	</g>
	<g id="Facebook_1_">
		<g>
			<path fill="#F5F7FA" d="M34.7,29.1l0-6.2h0c0,0,0-0.1,0-0.1c0-0.8,0.7-1.5,1.5-1.5l4.9,0l0-2.5l0-1v-3.5h-7.3l0,0
				c-3.8,0.3-6.7,3.4-6.7,7.2v7.5l-4.3,0v7h4.3v16.2h7.6V35.2h4.9l0.8-6.1H34.7z"/>
		</g>
	</g>
</g>
</svg>
