<?xml version="1.0" encoding="utf-8"?>
<!-- Generator: Adobe Illustrator 18.0.0, SVG Export Plug-In . SVG Version: 6.00 Build 0)  -->
<!DOCTYPE svg PUBLIC "-//W3C//DTD SVG 1.1//EN" "http://www.w3.org/Graphics/SVG/1.1/DTD/svg11.dtd">
<svg version="1.1" id="icons" xmlns="http://www.w3.org/2000/svg" xmlns:xlink="http://www.w3.org/1999/xlink" x="0px" y="0px"
	 viewBox="0 0 64 64" enable-background="new 0 0 64 64" xml:space="preserve">
<g id="instagram">
	<g>
		<circle fill="#714436" cx="32" cy="32" r="32"/>
		<path opacity="0.2" d="M43.7,17.2L38.9,22l-2.9-2.9L28.3,23l-7.4-7.4L19.5,17l1.3,1.3l-0.5-0.1l-0.7,0.5l-1.8-1.8L16,18.6l1.5,1.5
			l-0.8,0.5l-2.5,5.8l2.4,2.4L16,29.1l7.1,13.1l-6.4,6.4L32,64c16.9,0,30.7-13.1,31.9-29.7L47.4,17.9l-1.5,1.5L43.7,17.2z"/>
	</g>
	<g id="Instagram_1_">
		<path fill="#F5F7FA" d="M32,40.1c3.8,0,6.8-3,6.8-6.8c0-3.8-3.1-6.8-6.8-6.8c-3.8,0-6.8,3.1-6.8,6.8C25.2,37.1,28.2,40.1,32,40.1z
			 M28.3,29.6c1-1,2.3-1.5,3.7-1.5c1.4,0,2.7,0.5,3.7,1.5c1,1,1.5,2.3,1.5,3.7c0,1.4-0.5,2.7-1.5,3.7c-1,1-2.3,1.5-3.7,1.5
			c-1.4,0-2.7-0.5-3.7-1.5c-1-1-1.5-2.3-1.5-3.7C26.7,31.9,27.3,30.6,28.3,29.6z"/>
		<path fill="#F5F7FA" d="M41.6,15.4H22.4l0,8.4h-1.5v-8.2c-0.5,0.1-1,0.3-1.5,0.4v7.8h-1.5l0-6.9c-2.2,1.5-3.6,4-3.6,6.8v2.9h11.1
			c1.7-1.7,4.1-2.7,6.7-2.7c2.6,0,5,1,6.7,2.7l11.1,0v-2.9C49.8,19.1,46.1,15.4,41.6,15.4z M45.5,23.7l-4,0v-4h4L45.5,23.7z"/>
		<path fill="#F5F7FA" d="M41.5,33.3c0,5.3-4.3,9.5-9.5,9.5c-5.3,0-9.5-4.3-9.5-9.5c0-1.9,0.6-3.8,1.6-5.3h-9.8v14.8
			c0,4.5,3.7,8.2,8.2,8.2h19.2c4.5,0,8.2-3.7,8.2-8.2V28l-9.9,0C40.9,29.5,41.5,31.3,41.5,33.3z"/>
	</g>
</g>
</svg>
