<?xml version="1.0" encoding="utf-8"?>
<!-- Generator: Adobe Illustrator 18.0.0, SVG Export Plug-In . SVG Version: 6.00 Build 0)  -->
<!DOCTYPE svg PUBLIC "-//W3C//DTD SVG 1.1//EN" "http://www.w3.org/Graphics/SVG/1.1/DTD/svg11.dtd">
<svg version="1.1" id="Camada_1" xmlns="http://www.w3.org/2000/svg" xmlns:xlink="http://www.w3.org/1999/xlink" x="0px" y="0px"
	 viewBox="0 0 329.7 315.3" enable-background="new 0 0 329.7 315.3" xml:space="preserve">
<path fill="#B9AB9B" d="M48.1,300.8c7.6,4.5,15.4,7.7,23.6,9.7c8.2,2,17.3,3.1,27.3,3.3c10,0.2,19.5-0.2,28.4-1.2
	c8.9-1,18.5-2.6,28.6-4.7c10.2-2.2,19-4.3,26.4-6.5l23.2-7l3-1.1l-23.1,6.8c-7.6,2.1-16.3,4.2-26.3,6.3c-10,2.1-19.4,3.6-28.3,4.5
	c-8.9,0.9-18.2,1.2-27.9,0.9c-9.7-0.3-18.6-1.5-26.6-3.5c-8-2-15.7-5.3-23-9.8S40,288.4,35,281.6l-6,2.1
	C34.2,290.6,40.5,296.3,48.1,300.8z M211.7,292.2l8.6-3.1c2.6-0.9,4.4-1.5,5.5-1.9l3.1-1.2c0.9-0.3,1.9-0.7,2.8-1.1l2.6-1.2l4.6-2.4
	l7.1-3.4l-6,2.1l-7.5,3.7l-4.7,2.3c-0.2,0.2-1.2,0.6-2.8,1.4c-1.6,0.7-2.7,1.1-3.1,1.2c-0.4,0.1-2,0.7-4.8,1.8l-8.3,3L211.7,292.2z"
	/>
<path fill="#AA9583" d="M243.8,84.8c-7.6-4.5-15.4-7.7-23.6-9.7c-8.2-2-17.3-3.1-27.3-3.3c-10-0.2-19.5,0.2-28.4,1.2
	c-8.9,1-18.5,2.6-28.6,4.7c-10.2,2.2-19,4.3-26.4,6.5l-23.2,7l-3,1.1l23.1-6.8c7.6-2.1,16.3-4.2,26.3-6.3c10-2.1,19.4-3.6,28.3-4.5
	c8.9-0.9,18.2-1.2,27.9-0.9c9.7,0.3,18.6,1.5,26.6,3.5c8,2,15.7,5.3,23,9.8c7.3,4.5,13.5,10.1,18.4,16.9l6-2.1
	C257.7,95,251.4,89.3,243.8,84.8z M80.2,93.5l-8.6,3.1c-2.6,0.9-4.4,1.5-5.5,1.9L63,99.7c-0.9,0.3-1.9,0.7-2.8,1.1l-2.6,1.2
	l-4.6,2.4l-7.1,3.4l6-2.1l7.5-3.7l4.7-2.3c0.2-0.2,1.2-0.6,2.8-1.4c1.6-0.7,2.7-1.1,3.1-1.2c0.4-0.1,2-0.7,4.8-1.8l8.3-3.1
	L80.2,93.5z"/>
<path fill="#411B07" stroke="#FFFFFF" stroke-miterlimit="10" d="M94.5,242.5"/>
<path fill="#411B07" stroke="#FFFFFF" stroke-miterlimit="10" d="M157.5,127.5"/>
<path fill="#411B07" stroke="#FFFFFF" stroke-miterlimit="10" d="M3.1,137.3c0,0,10.1,4.6,20,5.2c2.1,1.4,3.8,2.2,3.8,2.2
	s16,8.7,19.6,9.7l-0.2,1.1l-2.1,1.3l-1.9,1l-1.1,1.3l-2.1,0.3l-1.6,0.6l-1.3,1.7l-1,0.5l-1.3-0.2l-1.7-0.8h-2.7h-4.4l-2.1-0.2
	l-0.5-1.6l-0.2-3l0.5-2.1v-2.2l-0.2-1.4l-2.1,1.4l-2.4,1.9l-1.7,0.6l-4.3-0.5l-0.3-1.9l-1.9-1.4l-1.4-0.6H7.2l0.3-1.1v-1.9L6.4,146
	L4.5,144l-1.4-2.9L2,138.9v-1.4L3.1,137.3z"/>
<path fill="#411B07" stroke="#FFFFFF" stroke-miterlimit="10" d="M3.1,135.2l3,1.9c0,0,13.9,4.3,17.1,4.3c0.6,0,1.6,0.8,1.6,0.8
	l1.9,1.3c0,0,17.7,9.7,19.6,9.8c1.9,0.2,1.9-0.6,1.9-0.6l1.1-1l1.1-1.1l1.9-0.3l2.2,0.6l2.2-1h1.4l1.1-0.5l0.5-1.3l2.1-0.5l2.7-0.2
	l0.6-1.4l1-0.6v-1.4l2.1-1.3l0.2-1.4l6.3-0.3l0.8,1.6l1.6,1.4l2.1,2.1L81,146l1.7,0.3h10.5l9.2-0.2l1.6-1.3l0.2-3.2l1.1-2.5l0.3-2.7
	l-1-2.2l-0.6-1.6l13.5-27.3l0.6-2.4l0.6-1.3l-2.5,0.6l-2.1-1.4l-2.1-1.7l-5.2-0.5l-1.6-2.4c0,0-3.2-4.4-3.5-4.4
	c-0.5,0.5-0.2-1.3-0.2-1.3l-0.1-2.2l-0.3-1.8l-1.2-0.1H98l-2.6,0l-0.7,0.2l-1.1,1.5l-1.6,2.1l-0.7,1.2c0,0-0.3,1.5-0.3,1.6
	c0,0.1-0.5,0.6-0.5,0.6l-1,0.4l-1.7,0l-1.2-0.9l-0.8-0.9l-1,0.2c0,0-0.9,0.6-1,0.6c-0.1,0-0.7,1-0.7,1l-0.1,1.6L83,98l-0.9,0.2l-1,0
	c0,0-1-0.6-1.1-0.6c-0.1-0.1-0.7-0.7-0.7-0.7s-0.9-0.8-1-0.9c-0.1-0.1-0.8-1-0.8-1s-0.8-0.8-0.9-0.9c0-0.1-0.5-0.8-0.5-0.8v-0.6
	l0-1.4L76,88.6c0,0-0.2-1.1-0.2-1.1c0-0.1-0.3-1.9-0.3-1.9c0-0.1,0-1.8,0-1.8s-0.1-1.5-0.2-1.6c-0.1-0.2-0.7-1.1-0.8-1.2
	c-0.1-0.1-0.7-1.3-0.7-1.3L73,77.8c0,0-0.5-1.3-0.6-1.5C72.2,76,71.7,75,71.7,75c0-0.1-0.2-0.5-0.2-0.5l-1.8,0L69.3,74l-0.6,0.2
	l-0.6,0.5l-1.4,0.6l-0.3,1.3l-1,1.1l-1,1.1L63,79l-1.1,0.4L61,80.2L59.9,81l-1.4,1.5l-1.2,0.3l-1.1,0.3l-0.7-0.5l-0.1-0.7h-0.9
	L53.7,82l-0.3,0.8l-1.3,0l-1.7,0l-0.5-0.4c0,0-0.4-0.6-0.5-0.6c-0.1-0.1-0.9-0.7-0.9-0.7l-0.7-0.5l-2.6-0.2l-0.1-3.8l-0.7-1.2
	L44,74.8l-0.4-0.4l-0.9,0.7l-0.8,0.6l-0.5,0.9l-1.1,0.7l-1-1.2L39,75.3l-0.6,0.9l-0.6,0.8l-3.1,0l-2.1-0.1l-3-0.1
	c0,0-0.6,0.2-0.7,0.2c-0.1,0-0.9,0.5-0.9,0.5s-0.3,0.6-0.3,0.7c0,0.1,0.2,1.3,0.2,1.3l0.1,0.9c0,0,0.2,0.3,0.5,0.4
	c0.3,0,1.2,0,1.2,0s1.1,0.1,1.2,0.1c0.1,0,0.5,0.3,0.5,0.3s0.4,0.3,0.5,0.4c0,0.1,0.5,0.8,0.5,0.8l0.2,0.9c0,0,0,0.8,0,0.9
	c0,0.1-0.2,0.8-0.2,0.8h-0.7l-1.2,0.1l-0.3-0.3l-1-0.1l-0.9,0.4L26.9,85l0,1.1l0,3.5l0.6,0.6c0,0,0.7,0.4,0.8,0.5
	c0.1,0.1,0.6,0.4,0.7,0.5c0.1,0.1,0.6,0.3,0.6,0.3l0.1,1.7l-0.1,0.8l0.9,1.1l0.4,1.1l-0.4,4.3v2c0,0-0.5,1.5-0.5,1.8
	c0,0.3-0.7,1.9-0.7,1.9l0,2c0,0-0.4,0.6-0.4,0.8c0,0.2-0.1,2.7-0.1,2.7s-0.4,1.2-0.5,1.4c0,0.2,0,1.7,0,1.7s-0.7,2-0.7,2.1
	c-0.1,0.1-0.7,1.1-0.8,1.1c-0.1,0-1.2,0-1.4,0c-0.1,0-1.3-0.4-1.4-0.5c-0.1-0.1-0.6-0.4-0.6-0.4H22l-1,0.4l-0.4,0.7l-1.6,0.6
	l-2.2,0.2l-2,0.1l-1.2,0.5l-1.4,0.8l-1,0.7c0,0-1.5,1-1.5,1.1c0,0.1-1.3,1.7-1.4,1.8c-0.1,0.1-0.5,1.5-0.5,1.5l-0.2,1l-0.7,0.9
	c0,0-0.5,0.8-0.6,0.9c0,0.1,0.2,1.4,0.2,1.4l0.2,0.9l-0.6,1.6l-1.1,1c0,0-1.2,0.7-1.2,0.8C3.9,134,3.1,135.2,3.1,135.2z"/>
<path fill="#411B07" stroke="#FFFFFF" stroke-miterlimit="10" d="M63.2,59.3c0.2,0,2.5,0,2.5,0l1.1,1.1l1.1,0.8l2.3,0.2l1.5,0.2
	l0.6,1.2l1.3,0.1H75l0.6-0.9l0.2-1.3l1.1-0.6l1.5-0.4h2.3l1-0.3l1.4-1l1.4-0.7l1.1-0.5l1.7-0.2l1.2-1.4l1.2-1.6l0.2-1.2l2.6,0.1
	l0.6,1.2l-0.6,1l-0.5,1l0.1,1.2l1.2,0.2l1.2,0.5l0.8,1.4l0.5,1.1l-0.3,1.1l-0.9,0.9l-0.2,1.1l-0.6,2l0.1,1l-0.4,0.8v2.3l0.1,1.2
	l0.7,0.9l0.6,1.2l0.1,1.8l0.9,0.5l1.4,1.3l0.8,1.1l1.8,1.2l0.5,0.7l0.1,3.5v2l-0.8,0.4H97l-2.6-0.1c0,0-0.5,0.6-0.8,0.7
	c-0.2,0.1-1.5,1.6-1.5,1.6l-0.6,1.3v0.7l-0.6,0.5l-0.5,0.6l-0.6,0.8l-0.1,1.1l-0.4,0.5l-0.9,0.2l-0.5-0.5l-0.5-0.7l-1.2-0.8l-1-0.4
	l-1.1,0.2l-0.8,0.8l-0.8,0.6l-0.9,1.1l-0.2,3L81,96.8l-0.9-0.6l-1.4-1.7l-0.8-1l-0.5-0.5l0.7-1v-1.1l-0.2-0.7l-0.5-0.9l-0.2-1.1
	L77,86.8l-0.2-1.3l-0.1-2v-2.2l-0.6-1.1l-0.7-0.8l-0.6-1L74.2,77l-0.5-1.2L73,74.3l-0.2-0.7l-1-0.8h-0.5l0.1-2.3c0,0-1,0-1.1-0.1
	c-0.2-0.1-1.6-0.1-1.6-0.1l-0.8,0.1l-1.2-0.2L66.2,70h-0.5c0,0-0.2-4.8-0.2-5c0-0.2,0.7-1,0.7-1l0.4-0.7v-1.8l-1.4-1l-1-0.3L63.4,60
	L63,59.6L63.2,59.3z"/>
<path fill="#411B07" stroke="#FFFFFF" stroke-miterlimit="10" d="M102.1,80.3l-0.1,4.5l0.1,1.9c0,0,0.4,3,0.4,3.3
	c0,0.3,0.4,1.5,0.4,1.5l1.1,0.8l0.6,0.7l0.3,1.4l0.8,1l1,1.2l1,1l1.2,0.1l1.1,0.1l0.4,0.2l1-0.4l0.8,0.1l0.9,0.6l1,1.2l1.2,0.5
	l1.3,0.8l1.2,0.1l0.7-0.6l1-0.2l1.1,0.6l-0.1,1l-0.1,1l-0.6,0.2l-0.6,1.4l-0.4,1.4l-0.9,1l-1.3,3.3l-11.1,22.5l0.1,0.9l0.8,1l0.1,1
	c0,0,0.8,0.7,0.7,0.9c-0.1,0.2,0,1.5,0,1.5l0.7,0.8l0.5,0.8l0.5,1.5l0.8,0.9l0.2,1.6l0.1,2.4l1.4,1l1.6,1.3l1.1,1.1l1.3,1.1l0.9,0.2
	l2.5,0.2l3.3,0.4l0.9,0.4l8.4,0.4l7.9,0.1l5.2,0.4h5.3l7.2,0.3l2.1,0.1l0.8-2l1.8-2.9c0,0,1.3-1.3,1.5-1.4c0.2-0.1,1.1-1.2,1.1-1.2
	l0.7-1.8l0.2-1.8l-0.2-1.3l-0.7-0.7l0.2-1.8l0.7-1l0.3-1.4l0.4-1.3c0,0,0.5-0.3,0.8-0.5c0.3-0.2,1.8-1.5,1.8-1.5l1.2-0.7l0.6-0.9
	l1-1.7l0.1-1.6l-0.1-1.5l-0.7-0.1l-1.2-0.5l-0.5-1.2l1.5-1.8l3.8-3.3l2-0.9l1.5-1.9l3-4.8l2.1-2.8l0.1-2l0.5-1.2l0.8-1.4l0.8-2
	l0.3-3l0.6-0.8v-1.9l-1.1-0.7h-1.8l-0.5-1c0,0-1.8-0.2-2.1-0.4c-0.3-0.1-1.5-0.2-1.5-0.2l-1.7-0.2l-1.5-0.3l-1,0.1l-0.7,0.7l-3.7,4
	l-2.1,2.6l-1.6,0.9l-1.7,0.1l-1-0.6l-0.8,0.1l-0.5,0.7l-0.4,0.7l-1.1-0.4l-1-0.8l-2.9-0.5c0,0-0.9-0.4-1.1-0.5c-0.2-0.1-1-1.2-1-1.2
	l-0.9-2l-0.5-0.4h-1.4l-1.8,1.1l-1.7,0.8l-2.7,0.5l-0.7-0.7l0.4-1.3l1.5-0.3l-0.1-0.7l-1.8-0.2c0,0-0.9-1-1.2-1.1
	c-0.2-0.1-1.1-1.5-1.1-1.5l-0.2-1.5l-0.9-1.1l-1.8-2.6c0,0-0.3-1.5-0.6-2c-0.3-0.5-0.5-1.4-0.5-1.8c0-0.4-0.8-1.4-1.1-1.7
	c-0.4-0.3-0.7-1.7-0.9-2.1c-0.2-0.4-1.2-1.2-1.2-1.2l-1.8-1.1l-1.9-1.4c0,0-1.4-0.3-1.7-0.5c-0.2-0.2-1.6-0.7-1.7-1
	c-0.1-0.2-0.4-1.8-0.4-1.8l-0.2-1.7l-0.7-0.9c0,0-1.3,0-1.5,0c-0.2,0-1.5,0.4-1.5,0.4l-0.7,0.5H122l-0.8-0.2l-0.2,0.8L121,74v1.2
	l-0.2,0.5h-1.6h-1l-2.8-0.2l-1.4,0.1c0,0-1.6-0.1-1.9-0.1c-0.3,0.1-2,1.2-2,1.2l-1.5,0.6l-1.6,0.8l-2.6,0.9l-1.2,0.9L102.1,80.3z"/>
<path fill="#411B07" stroke="#FFFFFF" stroke-miterlimit="10" d="M130.1,73l1.8,0.6l1.2,0.2l1.1-0.2l0.5-0.5l1.5-0.1h1.2l1.1,0.5
	l1.1,0.1l1.5-0.1l1.5-1c0,0,0.7-1,0.8-1.3c0.2-0.3,1.3-3,1.3-3l1.7-2.9l1.5-2.4l1.6-2l1.2-1.1l1.1,0.8l0.8,1c0,0,0.1,1.3,0.1,1.5
	s0.1,3,0.1,3l0.3,0.9l0.7,1c0,0,0.5,0.5,0.5,0.8c0,0.3,0.2,1.7,0.2,1.9c-0.1,0.2,0.4,2.1,0.4,2.1l0.5,1.1l1.1,1.2l1.2,1l1.4,0.2
	l0.7,0.7l0.7,1.2l-0.2,1.4c0,0-0.6,0.2-0.8,0.5c-0.2,0.2-1.5,1.6-2.2,2.2c-0.7,0.6-1.8,2.3-1.8,2.3l-1.7,1.4c0,0-1.2,0.8-1.7,1
	c-0.5,0.2-1.2,0.9-1.2,1.1c0,0.2-0.8,2-0.8,2l-0.9,1.3l-1.1,1.4l-0.4,1.7c0,0-0.3,0.4-0.7,0.4c-0.4,0-1.3,0-1.3,0s-0.5-0.8-0.7-1
	c-0.2-0.2-0.8-1.3-1-1.8c-0.2-0.5-1.1-2-1.1-2s-0.6-1-0.9-1.4c-0.3-0.4-0.9-1.6-1.2-1.9c-0.3-0.3-0.8-1-0.8-1s-0.1-1.3-0.2-1.6
	c-0.1-0.3-0.6-2.1-1-2.4c-0.4-0.4-1.1-2.3-1.3-2.5c-0.2-0.2-0.5-1.1-1.1-1.3c-0.5-0.2-1.3-0.5-1.8-0.8c-0.5-0.3-1.5-0.7-1.8-0.7
	c-0.3-0.1-0.9-0.8-1.5-0.9c-0.7-0.1-1-0.4-1.3-0.7c-0.3-0.2-1.1-1.1-1.1-1.5C129.3,73.1,130.1,73,130.1,73z"/>
<path fill="#411B07" stroke="#FFFFFF" stroke-miterlimit="10" d="M187.4,96.9l1.4,0.1l1.2,1l1,0.1l1.6,0.1l1.3,0.5l0.8,1.1l1.7,1.3
	c0,0,0.8,1.1,0.8,1.3c0,0.2,0.2,1,0.2,1.3c0,0.2,0,1.3-0.2,1.3c-0.2,0.1-1.3,1.2-1.3,1.2l-0.3,1.1l0.1,1.4l0.8,0.7l1.1-0.3l0.5-1.2
	l1.3-0.7h1.1l0.5-0.7c0,0,0.5-0.7,0.9-0.7c0.4,0,2.3-0.1,2.3-0.1l0.9-0.5l0.8-0.4l1.5,0.3l1.2,0.6l1.5,1l1.1,0.5l2,0.2l1.1,0.3
	l-0.1,1.1l-0.8,0.9l-1.3,0.7l-0.5,0.4l-1.9,0.4l-0.8,1.7l-1,1.7l-0.7,1.3c0,0-0.1,2.1-0.1,3.2c0,1.1,0.5,2,0.5,2.4
	c0,0.4,0.4,1.7,0,2.1c-0.4,0.5-0.8,2-1.2,2.3c-0.4,0.4-0.2,2-0.2,2l0.1,1l1.1,1.3l-0.2,1.7l-0.7,1l-1.5,0.1c0,0-1-0.4-1.2-0.4
	c-0.2,0-1.5,0.1-1.5,0.1l-1.4,0.1l-0.9,0.5l-1.3,1.1l-1.1,1.2l-1.5,1.5l-1.5,0.6l-2.6,0.7l-1.7,1.4l-0.8,1.8l-0.2,1.2
	c0,0-0.4,1.5-0.4,1.7c-0.1,0.2-0.9,1.5-1.1,1.7c-0.1,0.2-0.7,2.1-0.7,2.3c0,0.2,0.1,2.1,0.1,2.1l0.4,1c0,0,0.4,1,0.2,1.1
	c-0.2,0.2-0.1,2.6-0.1,2.6l-0.7,1c0,0-1-0.4-1.2-0.4c-0.2-0.1-1.1-0.6-1.1-0.6s-0.5-1.5-0.6-1.9c-0.1-0.4-0.1-1.7-0.4-2
	c-0.2-0.3-0.8-0.7-1.1-1.1c-0.3-0.4-1.1-1.4-1.1-1.5c0-0.2,0.1-1.4,0.1-1.5c0-0.2,0.7-1.7,0.7-1.7s1.3-0.5,1.5-0.7
	c0.2-0.1,0.6-1.8,0.6-1.8v-1.5c0,0-0.2-0.2-0.6-0.7c-0.4-0.5-3.1-0.2-3.1-0.2l-1.4-0.9l-1.5-1.9c0,0-0.8-1.2-0.7-1.4
	c0.1-0.2,0.6-2.5,0.6-2.5l0.3-5.7l-0.2-1.9l-0.6-1.3c0,0-2.7-1.8-3-1.8c-0.2,0-1.7-0.4-1.7-0.4l-0.4-0.8l1.8-2.1l2.1-1.1l1.4-1.2
	l1.4-2.3l1.7-2.8l1.4-2l1.2-2l0.3-1.2l0.4-1.2l0.2-1.1c0,0,0.3-0.8,0.4-1c0.1-0.2,0.8-1.5,0.8-1.5s0.4-1.8,0.4-2
	c0-0.2,0.3-1.5,0.3-1.7c0-0.2,0.6-2.1,0.6-2.1L187.4,96.9z"/>
<path fill="#411B07" stroke="#FFFFFF" stroke-miterlimit="10" d="M88.2,178.4c0,0-2.3-0.4-2.6-0.4c-0.4,0-2.4,0.1-2.9,0
	c-0.4-0.1-2-0.2-2-0.2l-1.4-1l-0.7-1.1l-0.9-0.5l-2.2-0.4l-1.4-0.3l-0.8-0.8l-0.8-1L72,172l-0.7-0.4l-1.1,0.5h-1l-0.7-0.6l-0.9-0.5
	l-1-0.1l-2.1,0.2l-1.4-0.7l-1.2-1.4l-1.7-1.5l-1-1l-0.9-1.3l-0.7-2l0.1-2.7l-0.4-1.3l-0.3-1.5l0.8-0.7l0.1-3.1l-0.5-1.1h-1.4
	c0,0-2.4,0.1-2.7,0.1c-0.4,0-2.4,0.5-2.4,0.5l-1.4,0.4l-0.3-0.4l0.5-0.7l0.7-0.8c0,0,1-0.2,1.1-0.2c0.2,0,1.5,0,1.5,0L55,152
	l1.9-0.4h2.2L60,151l0.8-1.1l0.7-0.8h3.1c0,0,0.9-0.1,1-0.4c0.1-0.3,0.2-1.4,0.2-1.4l1.1-0.7l0.2-1.4l0.5-0.7l1-0.1l0.8-1.4l0.8-0.7
	l1.1,0.1h1.8l1.1,0.9l1.7,1.1l1.1,1.3l1.1,1.2l0.9,0.6l0.8,0.1l0.7-0.2h0.9l0.6,1.6L82,150l0.2,1.2l0.2,1.1l-0.1,2l-0.4,1.4l0.2,2
	l0.2,1v1l-0.1,1.5l0.3,0.4l0.2,0.8l2.1-0.2l2.9,0.1h2.8l0.3,1l1.5,0.2l0.9,0.4l-0.2,0.7l-0.9,1l-0.1,1.1l0.6,1.5l0.9,1.5l0.1,2.9
	l-0.7,0.8l-1.4,2.1L88.2,178.4z"/>
<path fill="#411B07" stroke="#FFFFFF" stroke-miterlimit="10" d="M83.9,147.5l20.3,0.3l0.6-1.3l0.7-2l0.2-2v-1.7l0.3-1.3l0.3-1
	l0.6,0.1l0.3,0.4l0.2,1l0.7,1.3l0.6,2.1l0.4,3.3l1,1l5.3,4.4l2.1,0.3l8.6,0.3l18.8,0.8l13.7,1l-0.1,0.7L158,157l-1.9,5.3
	c0,0-0.2-0.2-0.2,2.3c0.1,2.5,0.1,7.6,0.1,7.6l0.5,2.1c0,0,0.1,2.3-0.9,3.6c-0.9,1.3-1.4,3.7-1.4,3.7l-0.7,4.4l-0.8,1.3l-1.7,0.9
	l-1.3,1.3l-1.1,1.6l-0.5,1.4l-1,0.6l-1.7,1.1l-1.3,1.2l-1.6,2.6l-1.4,2.1l-1.2,1.6l-1,1.2l-0.2,1.1l-0.1,1.6l0.6,0.9l-0.1,0.6v1.3
	h-2.5l-0.2-0.9l0.2-1.6l-0.2-0.9l-0.6-1.3l-1.2-0.1l-1.3,0.9l-0.7,0.6c0,0-1.1,0-1.6,0c-0.5,0-1.6-0.5-1.6-0.5l-1,0.2l-2.9,0.2
	l-1.9-0.8c0,0-0.3-0.3-1.3-1c-1-0.7-1.8-0.6-2.1-0.6c-0.3,0-2-0.2-2.8,0.2c-0.8,0.3-0.4,0.4-1.2,0.4c-0.8,0-1.7,0.6-2,0.8
	c-0.2,0.2-1,1.4-1,1.4l-0.5,0.9l-1.4-0.1h-0.6l-0.7-0.7l-1.7-1l-1.3-0.3l-1.5-1l-0.6-0.8l-0.4-2.7v-1l0.6-0.5l0.2-1V196l-12.2-0.1
	l-0.2-2.3l-0.5-2.3l-0.4-0.6l-0.7-0.6l-0.4-1h1.3l0.2-1.7l-0.3-2.4l-0.6-1l-0.6-4.2l-0.8-0.6l1-0.9l3.6-5.2l0.1-4.9l-0.7-1l-0.4-1.4
	l0.2-1c0,0,0.5-1.5,0.2-1.8c-0.2-0.3-0.5-0.7-0.7-1c-0.2-0.2-2.1-0.7-2.1-0.7s-1.9-0.7-2.1-0.7c-0.2,0-5.4,0.1-5.4,0.1l0.2-3.2
	l-0.7-1.3l0.4-1.7L83.9,147.5z"/>
<path fill="#411B07" stroke="#FFFFFF" stroke-miterlimit="10" d="M108.7,206.1l0.4,1.8c0,0,0.9,1.1,1,1.4c0.1,0.3,0.1,1.6,0.1,1.6
	l-1.1,1.3l-0.2,2.1c0,0,0.4,1.6,0.3,1.8c-0.1,0.2-1.3,1.8-1.3,1.8l-1.1,1.3l-0.2,1.2l1,1.2l-0.7,1.4c0,0-0.4,0.8-0.5,1.1
	c-0.1,0.3,0.4,1,0.4,1.4c0,0.4,0.6,1.7,0.6,2c0,0.2,0.4,1.3,0.4,1.3v2.1l0.2,2.9v1.7l2.4,0.2l0.6,0.2h3l3.4-0.1l2.2,0.5l1.5,0.5
	l0.9,0.9l0.7,1.4l0.3,1.9v1.7l0.6,0.5l0.6,1l0.2,1.4l0.3,1.9l0.6,0.7l1.9-0.2l1-0.6l1.1-0.6l1.4,0.1l0.6,0.7l0.9,0.2l0.6-0.8
	l0.2-1.8l1.4-1.1l0.2-1.1l0.9-1.1l1-1.2l3.2-1.7l1.2-1.2l2-1.8l3.2-2.5c0,0,0-1,0.1-1.3c0.1-0.2,0.9-1.2,0.9-1.2l0.2-1.4l1.1-1.7
	l1.7-2.3l1.3-1.7l1.3-1l0.6-0.4v-4.7l-1.8-0.6l-2.5-0.8c0,0-2.6-1.3-3-1.7c-0.4-0.3-1.5-0.8-1.8-1c-0.3-0.2-1.6-0.3-2-0.3
	c-0.4,0-1.3,0.2-1.7-0.2c-0.4-0.3,0-2.5,0-2.5s-1.4-0.4-1.6-0.7c-0.2-0.3,0.2-0.7-0.3-1c-0.5-0.2-1.7-0.2-2.2-0.2
	c-0.6,0-1.9,0-1.9,0l-0.5-1.5l0.6-0.7l0.4-1l0.3-1.2l-0.6,0.2l-0.4,0.3l-1.3,0.6h-1.5c0,0-1.5,0.1-1.7,0.1c-0.2,0-1.7,0.2-1.7,0.2
	s-1.3,0-1.8,0c-0.5,0-1.2,0.1-1.7-0.2c-0.5-0.3-1.4-0.6-1.7-0.7c-0.2-0.1-1.8-1.1-1.8-1.1s-0.6-0.3-1-0.3s-1.7,0.2-1.9,0.2
	c-0.2,0-2,0.6-2,0.6l-1,0.8l-1,0.8l-1,1l-0.8,0.1c0,0-1.2-0.2-1.5-0.2C110.2,207,108.7,206.1,108.7,206.1z"/>
<path fill="#411B07" stroke="#FFFFFF" stroke-miterlimit="10" d="M158.3,174l1.4,0.9l1.3,1l1.3,0.2l1.3,1.3l1.7,0.5l0.3-2.1l1-0.6
	l2.4-0.1l0.2,1.4l0.3,1l0.9,0.2l1.7-0.2l1.3,0.2l1.1,0.6l0.6,0.3l1.7,0.1v-0.9l1.7-0.4l1.2-0.7l1.7-0.4l1.7-0.5l1.4-0.3l0.9,0.1
	l0.1,2.5l-0.6,0.3l0.2,4.2l0.6,0.7l0.7,1l0.5,0.3v2.6l-0.2,0.5l-0.7-0.1l-0.9-0.7l-1-0.4l-1,0.1l-0.3,1v0.8l-1.4,0.3l-1,0.2v1v2.2
	l0.3,0.9v0.5l0.2,1l-1,0.1l-1.5,0.2l-0.9,1.7l-0.3,1.3l-0.1,1.3l0.3,1l0.5,0.6l0.6,1l0.1,0.7l-1,0.8l-0.9,1l-0.3,0.9l0.2,1l0.7,0.3
	l0.3,0.6v1.4v0.7l-0.9,0.7l-1.2,0.6l-0.9,1l-0.2,0.6l-0.9-0.5l-1.5-0.3h-1.8l-2.1-0.1c0,0-1,0.2-1.3,0.2c-0.2,0-1.4,0.4-1.4,0.4
	l-1,0.8l-1.9-0.2l-2.5,0.4c0,0-1.1,0.2-1.3,0.2c-0.2,0-1.3,1.1-1.3,1.1l-1.2,1.4l-0.9,1l-1.4,1.7l-1.5-1.1l-1.7-0.9
	c0,0-0.9-0.6-1.3-0.6c-0.4,0-2-1-2.2-1s-1.3-0.9-1.6-1c-0.2-0.1-0.6-0.6-1.3-0.9c-0.7-0.2-1.5-0.6-1.5-0.6l-0.7-0.8l-0.2-0.9
	l-1.2-0.7l-0.3-1.4v-1.3l-0.2-1.1l-0.2-2.2l1-2.3l1.2-0.6l1.2-1l0.6-1.7l2.3-2.7l1.3-0.5l1.5-0.6l0.2-0.8l0.6-1.7l1.2-1.7l1-0.5
	l1.4-1.1l0.5-1.3l0.7-3.1l0.9-1.7l0.4-1.7c0,0,0-1,0.3-1.7c0.3-0.6,0.4-2.1,0.7-2.3c0.3-0.2,0.6-1.7,0.6-1.7L158.3,174z"/>
<path fill="#411B07" stroke="#FFFFFF" stroke-miterlimit="10" d="M132.9,249.1v3l-0.2,2.4v2.6l-1,1.2l-0.5,0.3l0.6,0.3h0.7l0.6-0.5
	l0.5,0.2l1,1.5l0.6,1.1l0.3,1.5l1.5,0.7l1.8,0.3l1.7,0.2l1.9,0.1l1.9,0.2l0.7,0.6l1.7,0.5l2.5,0.6l2,0.1l0.6-0.6l0.1-0.9l0.5-1
	l1.9-0.1l1-0.1l0.9-1l0.6-0.6h1.7h2.2h1.7l0.4,0.9l0.8,0.4l0.8-0.1l1-0.8l1-0.2h1.1h1.3l0.8,0.5h0.6l0.5-0.9l0.3-1.1l0.8-0.8
	l0.2-0.7l0.6-0.4l-0.1-1.2l-0.7-0.6h-1l-1-0.1l-0.4-0.3l0.1-1.2v-1h-4.4l-0.4-1.7l-0.2-1.7l-0.7-1.2l-1-0.9l-0.1-1l-0.2-2.2
	l-0.2-1.7l-1-1l-1.3-0.2l-4.9-0.1l-1.2-0.8l-0.8-0.5l-1-0.2l-0.8-0.2l-2.2-0.2l-2.5-0.2h-0.9h-1.7l-1.3,0.1h-1.5h-0.8l-1.3,0.6
	l-1.3,1.1l-1.3,1.3l-0.5,1.1l-1.6,1.7l-0.6,1.1L132.9,249.1z"/>
<path fill="#411B07" stroke="#FFFFFF" stroke-miterlimit="10" d="M142.1,238.9l2.3,0.2l2.4,0.2h1.9l1.8,0.2l1.4,0.3l1.5,1l1.1,0.3
	h2.2h1.7h2.1l1.1,0.2l0.5,0.7l0.7,0.7l0.6,0.6l0.3,0.9v1.3v1l0.1,1l0.3,0.8l0.4,0.2l0.2,0.8l0.6,0.7l0.2,0.9l-0.1,1.3l0.1,0.7
	l1.7,0.1h2.2l0.7,0.2l0.4,0.8l0.1,1.1l0.2,0.5l1.1,0.1l1.1,0.4l0.2,0.4l0.8-0.2l0.8-1.3l1.7-1c0,0,0.8-0.6,1-0.9
	c0.2-0.2,2.5-1.6,2.5-1.6l1.5-1.3l0.9-0.7l1.6-0.6l1.1-0.4l0.9-0.2l1-1l4-0.1l0.6-1.1l1.8-1.1l0.9-0.4l1.6-0.2l1-0.2l-0.1-0.7
	l0.1-0.7l1-1v-1.4h-1.2l-1.2-0.8h-1.4l-1.3,0.6l-1.3,0.5l-1.1,0.6l-1.3,0.5c0,0,0,0.6-0.2,0.7c-0.2,0.1-2.3,0.1-2.3,0.1l-1.8,0.1
	l-0.9-0.4l-0.7-1.4l-0.3-1c0,0-0.4-1-0.5-1.3c-0.1-0.2-0.1-1.8-0.1-1.8l-0.1-1.7l0.1-1.1l0.2-1.1l-1.2-0.3c0,0-1.2,0-1.4-0.5
	c-0.2-0.5-0.9-1.4-0.9-1.7c0-0.2-0.4-1.2-0.4-1.6c0-0.4-0.1-1.3-0.1-1.8c0-0.6-0.1-0.9-0.1-1.1c0-0.2-0.6-1.6-0.6-1.6l-0.9-0.6
	l-1.2-0.2l-1,0.2l-2.1,0.4h-2.5l-1,0.1l-0.5,1l-0.3,0.8l-1.2-0.6l-1.4-0.6l-0.8-1.2c0,0-0.5-0.7-1-0.8c-0.6-0.1-1.2-0.1-2-0.1
	c-0.8,0-3,0-3,0l-1.5-0.5l-1-0.1l-1,0.5l-1.3,0.7l-1,1.3l-1.8,1.4l-1.4,1.7l-0.4,1.2l-1,1.5l-0.2,1.3l-0.7,1.1l-0.1,1l-0.7,1.2
	l-1.4,1l-1.5,1.3L142.1,238.9z"/>
<path fill="#411B07" stroke="#FFFFFF" stroke-miterlimit="10" d="M197.3,238.7l2.1-1.3l1.3-0.2l2.4-0.2l1.6-0.4h0.9h1.2l1.6-0.5
	l1.3-0.7l0.7-0.3l0.9-0.4l0.6-0.6l0.9-1l0.3-1.4l0.3-1l0.1-1l1.1-0.7l0.5,0.3l0.4,0.9c0,0,0.6,0.3,0.9,0.5c0.2,0.2,1.3,0.3,1.3,0.3
	h1.7h0.7l0.1,2.5l0.4,0.7l-0.1,0.7l-0.7,0.5l-1.3,0.7l-0.6,0.3l-1.1,0.3l-1,0.8l-0.6,1l-0.7,1.1l-0.4,0.6v0.9l-1.5,0.2
	c0,0-2.1,0-2.4,0c-0.2,0-1.9,0-1.9,0l-0.7-0.6v-0.8h-1.1l-0.8,0.1v1.3l-0.6,0.6c0,0-1.9-0.1-2.1-0.1c-0.2,0-1.1-0.3-1.1-0.3
	l-1.2-0.3l-0.6,0.7l-0.6,0.2l-0.4-0.7l0.5-1.1l-0.3-0.9l-0.8-0.3L197.3,238.7z"/>
<path fill="#411B07" stroke="#FFFFFF" stroke-miterlimit="10" d="M216.3,229.1l0.9,0.4l0.9,0.4l2.5-0.3l0.6-0.7l0.8-0.8l0.6-0.9
	l1-1.3l1-1.3l0.5-0.9l0.6-1.7l0.3-1.5l1.6-0.8c0,0,0.6-0.3,0.6-0.6c0-0.3,0.2-2,0.2-2l0.2-2.7v-2.1l-0.6-1.6l-1-0.6l-1.2-0.9l-1-0.2
	h-1.8l-0.8,0.3l-0.7,0.5l-0.7,0.6v1l0.1,0.9l0.2,1.2l0.5,1l-0.5,0.7l-0.1,0.6v1.2l-0.2,1.5l-0.5,1.8l-0.5,1l-0.8,1l-0.4,1l-0.4,0.7
	l-1.3,0.2l-1,0.5l-0.1,1.3l-0.1,1.3l-0.2,1.5L216.3,229.1z"/>
<path fill="#411B07" stroke="#FFFFFF" stroke-miterlimit="10" d="M154.8,220.2l0.1,0.7l2.1-0.1h2l2.1,0.1l2.9,0.1l1.4,0.7l0.7,0.7
	l0.6,0.7h1.1l0.4-0.5c0,0,0.3-0.4,0.7-0.4c0.4,0,1.5,0.1,1.9,0c0.4-0.1,0.9-0.4,1.1-0.4c0.2,0,1.8-0.2,1.8-0.2s1.3-0.2,1.5-0.2
	c0.2,0,1.6,0,1.6,0l1,0.4l0.6,0.6l0.6,0.7l0.4,1.3l0.4,1.3v1.3l0.3,1.1l0.2,0.6l0.5,0.8l0.7,0.8l0.8,0.5l0.7,0.2l0.9,0.4l0.3,0.8
	l-0.1,1l-0.1,1l-0.4,0.8v1.2l0.1,1.1l0.4,1l0.3,0.5l0.5,0.8l0.1,0.8l0.1,0.6h1l1.5-0.1l0.3-0.8l0.7-0.8l1-0.4l0.4,0.4
	c0,0,0.8,0.1,1-0.1c0.2-0.1,0.7-0.4,0.7-0.4l1.3-0.4l0.9-0.5l0.8-0.4l1.5-0.4l1.3-0.3l0.9-0.4l1-0.3l1.4-0.3l1.3-0.2l0.9-0.2l1-0.1
	h1.8l1.2-0.1l1.3-0.5c0,0,1.4-0.6,1.4-0.8c0-0.2,1.3-1,1.3-1l0.7-1l0.6-1.5l0.5-1.4l0.5-0.9l0.6-1.1l0.7-0.8l0.4-1.2l0.4-1.4l0.8-1
	l1.8-0.1l0.5-0.8l0.6-1.4l0.8-1c0,0,0.1-0.8,0.1-1.1c0-0.3,0.4-2,0.4-2l-0.2-1l-0.4-0.5l0.2-1.3l0.6-0.4l-0.1-1.1l-0.7-0.5
	c0,0,0.1-0.8,0.1-1.1c0-0.2,0.5-1.2,0.5-1.2l0.3-0.5c0,0,0.1-0.8,0.5-1.1c0.4-0.2,0.8-0.4,0.8-0.4l0.5-0.1l0.5,0.1h1.4h1l0.1-0.5
	l-1.3-1.2c0,0-0.8-1.1-0.8-1.3c-0.1-0.2,0.1-2,0.1-2l0.3-1.8l0.7-0.4h1l0.1-1l0.5-1.1l0.7-0.8l0.6-0.7l0.1-1.4l-1.5-0.7l-1.1-0.5
	l-1.2-0.5c0,0-0.8,0-0.9,0c-0.2,0-1.3,0-1.3,0H220l-0.9,0.4h-0.8l-0.2-0.8l-0.2-1.2l-0.9-0.8l-0.6-0.8l-0.7-0.3c0,0-0.8-0.1-1.1-0.1
	c-0.2,0-1.3,0-1.3,0l-0.6-0.1l-1.1-0.4l-2.1-1.1l-1.4-1.1l-1-0.8c0,0-0.7-0.1-1-0.1s-1.1,0.1-1.1,0.1l-0.1,0.6l-0.8,0.1l-1.4-0.1
	l-1-1.1l-0.3-0.7l-0.3-0.7l-0.8-0.5l-1.1-0.2l-1.1,0.1l-2.1,1.5l-3.6,2.3l-3.3,1.6l-1.5,0.5l-0.9,0.4l-0.1-1.6c0,0-0.7-0.8-0.9-0.8
	c-0.2,0-1.1,0-1.1,0l-0.7,0.9l-1,0.4l-0.6,0.2l0.1,1.7l0.4,1.3l-0.1,1.4l-0.2,1l-1.1,0.6l-0.9-0.1l-1,0.5l-0.1,1.1l-0.1,1.8l0.6,0.8
	l0.1,1l0.1,1.1l-0.1,1l-0.9,0.7l-0.4,0.8l0.2,1l0.5,0.2l0.2,1l-0.2,1.4l0.2,1.1c0,0-0.4,0.4-0.5,0.7c-0.1,0.4-1.1,1.3-1.1,1.3
	l-1.4,0.5l-1.1,1.1l-0.7,0.7l-0.8-0.9c0,0-1-0.7-1.2-0.7c-0.3,0-1.2,0-1.2,0h-1.8l-1.6-0.1l-1,0.2l-0.7,0.8l-0.9,0.4l-1.4,0.1
	l-1.2,0.2l-1.6,0.2l-1.2,0.1c0,0-0.7,0.1-0.9,0.2c-0.2,0.2-0.9,0.4-1.1,1c-0.2,0.6-1.7,2.4-1.7,2.4s-1.1,1.4-1.3,1.7
	C154.8,219.3,154.8,220.2,154.8,220.2z"/>
<path fill="#411B07" stroke="#FFFFFF" stroke-miterlimit="10" d="M136.2,265v1.7l0.1,1.7l0.2,1l1.3,0.1h1.7l1.6,0.1l1.7,0.2l2.4,0.6
	l1.4,0.6l1.1,0.2l1.4,0.5l1.3,0.3l1,0.6l5.5,5.3l1.2,0.4l1.6-0.1h1.7c0,0,0.5-0.2,0.6,0.2c0.2,0.5,0.5,1,0.5,1l-0.2,1l-0.4,0.9
	l-0.9,1l-0.4,0.9l0.9,0.2l1,0.4l0.6-1l1.3-1.2l1.2-1l2.1-1.1c0,0,0.6-0.5,0.6-0.8c0.1-0.3,0.6-2.3,0.6-2.3l0.5-1.7l0.2-1.9v-1.8
	l-0.1-2.1c0,0,0-1.6,0-1.8c0-0.2-0.1-2-0.1-2l-0.2-1.1l-1.4-1.1h-1.3l-1,0.4l-0.6,0.6l-0.7,0.2l-1.3,0.4l-0.7-0.3l-0.5-0.6l-0.5-0.6
	l-1.2,0.1l-1,0.1l-1.6,0.2h-1l-0.9,1l-0.7,0.6l-1.3-0.1l-0.5,0.5l-0.7,1l-0.4,0.9h-1H150l-1.2-0.2l-1.7-0.2l-1.6-0.4l-1.3-0.5
	l-1.3-0.4l-1.3-0.2h-0.9l-2-0.3l-1.5-0.2L136.2,265z"/>
<path fill="#411B07" stroke="#FFFFFF" stroke-miterlimit="10" d="M110.9,290.6l1.3-0.2l1.1-0.7l1.3-0.5l1.2,0.2l1.1,1.2l1.8,1.6
	l1.5,1.7v1l0.6,0.7l0.9-0.2l1-0.6l0.7-0.4l0.8,0.7l0.5,0.6l0.7,1l1,0.9l1.2-0.2l1,1l1.2,0.6l0.9,0.6l1,1.2l0.8,1l1.2-0.1l1.3,1
	l0.2,0.8l0.9,0.8l0.9,1.2c0,0,0.3,0,0.6,0.2c0.2,0.2,1.2,0.8,1.2,0.8l0.6,0.7l-0.1,1.8l-0.6,0.9c0,0-1,0.6-1,0.8
	c0,0.2-0.1,3.3-0.1,3.3l0.8-0.6l1.2-0.9l1.7-0.8l0.7-1.3l1.3-1.4l0.5-2.1l0.7-2l0.7-1.2v-2.1l0.7-1.2l1-0.8l0.1-1.8l1.7-0.4l0.9-0.6
	l0.2-1.9l1.1-0.8l0.8-3.3l0.7-0.4l1.1,0.3l0.1,0.6l0.9,0.3l0.6-0.7l0.9-0.2h1.2l-0.1,1.9l-0.8,0.8l-1,1.3l-1.7,1.5l-0.8,1.4
	l-0.7,1.1l-1.6,1l-1.7,1.1c0,0-1,0.5-1.3,0.6c-0.2,0.2-0.9,0.6-0.9,0.6l0.1,1l0.6-0.1l0.9-0.1l1.3-0.6l1.6-1.2l1.5-1.4l1.5-1.4
	l1.7-1.9l1.9-2.6l1.2-2.2l1.3-2.8l0.6-1.5l0.8-1.8l-0.7-0.5l-1-0.2l-0.2-1.5l0.6-1.6l0.9-1.3v-0.6l-2.1,0.2l-1.7-0.4l-1.3-0.3
	l-1.7-1.7l-0.9-1.1l-1.3-1.2c0,0-1.3-0.8-1.7-1c-0.3-0.2-1.8-0.6-1.8-0.6s-1.7-0.6-2.1-0.7c-0.5-0.1-1.9-0.1-2.4-0.3
	c-0.5-0.2-2.5-0.6-2.7-0.6c-0.2-0.1-1.4-0.6-2.9-0.6c-1.5,0.1-3.4,0.1-4,0.1c-0.6,0-1.7,0-1.7,0l-1.2,0.9l-1.3,1l-1.8,0.9l-1.4,0.9
	l-1.3,0.8l-1.3,0.7l-14.1,14.3L110.9,290.6z"/>
<path fill="#411B07" stroke="#FFFFFF" stroke-miterlimit="10" d="M170.9,123.8l1.8,0.2l1.4,0.6l1.8,0.7l0.6,1.2l0.6,2.4l-0.2,2.6
	l-0.1,2.4l-0.5,1.2l-0.5,1.2l0.1,1.3l1.4,1l0.8,1.2l1.1,1.3l1.8,0.8h1.8l0.5,1.3l-0.6,1.1l-1.2,0.6l-0.8,1.1l-0.2,1.3l-0.2,1.3
	l0.6,1l1.1,1.4l0.7,1.1l0.2,1.3l0.4,1.1l0.8,1.3l0.7,0.6l1.1,0.7l1.3,0.2l0.5,0.7l-0.8,0.6l-1.1,1.2l-0.7,1.1l-0.8,1.4l-0.1,1.8v1.1
	l1.4,1c0,0,0.1,0.2,0,0.7c-0.1,0.5,0,2.5,0,2.5l-0.6,0.8v1.4l0.5,0.8l-0.1,1.4l-0.9,0.1l-2.9,1.2l-2,0.5l-2.4,0.4l-1.3,0.2l-0.2,0.7
	l-1.8-1l-1.2-0.5l-1.1-0.5l-1.2-0.7l-0.9-1h-1l-1.9,0.1l-1.3,1l-0.6,1.2l-1.4-0.5l-1.2-0.5l-0.8-1l-1.1-1.9c0,0,0.2-1-0.2-1
	c-0.5,0-1.8,1-1.8,1l-0.6-2.1v-3.9l0.5-4.3l1.2-3.5l1.1-2l0.5-2.1l0.2-2.5l0.7-1.4l1.9-2l0.9-1l1-1.4l0.7-1.5l0.5-2v-1.4l-0.5-1.7
	l0.1-1.8l0.5-2l1.8-1l1.7-1.4l1.2-1.3l0.7-1.8l0.5-2v-1.8l-1.1-1.3L170.9,123.8z"/>
<path fill="#411B07" stroke="#FFFFFF" stroke-miterlimit="10" d="M185.3,164.5l0.1-1.9l0.8-1.8l1.3-0.7l0.8-0.8l1.1-1.2l1.1,0.2
	l0.7,1.1l0.8,1l1.1,0.4l1.4,0.7l0.9-0.1l1.4-0.8l1.1-0.5h1.9l0.7-0.8l1.7-1.4l1.1-1.8l0.4-1v-1.3l-0.2-0.5l-0.1-1.3l0.6-0.8h1.2
	l0.7,0.5c0,0,1.2-0.1,1.7,0c0.5,0.1,0.8,0.7,0.8,0.7h1.7l1.3-0.4l1.7-0.7l2-0.5l1.5-0.6l1-1.5l1.1-0.7l1.5-0.7l0.9,0.5l0.2,0.7
	l0.2,1.1l0.2,1.7l1,0.8l1.2,0.2l2.1-1.4l1.3-1.3l1.3-0.4l0.9-1.4l0.8-1l1-0.4h0.8l0.8,0.4l1.2,0.5l1,0.4l1.5,1.1l0.8,0.7l1,0.7
	l0.9,0.7l0.5,1.7l-0.1,1.1l0.2,0.8l1.1,0.6v0.6l-0.1,3.7l-1,0.5l-0.9,0.5v1.3l0.2,1l0.6,1.2l0.8,1.3l1.3,1.2l1.2,0.6l-0.6,1.8
	l-1.8,2.1l-1.5,1.8l-1.3,1.5l-0.1-0.7l-1.1-0.7l-1.3-0.1l-1.2,0.4c0,0-0.5,0.7-0.5,1.1c0,0.4,0.1,1.1,0.1,1.1v1.4l-0.6,1.2l-0.8,1.5
	l0.2,2.3l0.2,1.2l0.4,1l-0.1,1.1l-0.2,0.7l0.1,3.2l0.2,2.5l-0.1,1.4l0.5,1v1.2l-0.2,2.1L233,198l-0.2,1.9l-0.5,1.7l-0.6,1.1v2
	l0.5,0.4v1l-1.7,1.5l-1.5,1.9l-0.8,0.2l-1.2-0.7l-0.6-1.2l-0.2-1.2l-1-0.7l-0.6-1.1l-0.2-1.2l0.1-1l1.1-1.2l0.8-1.5l1.2-1.2l0.7-1.5
	v-1.8l-1.9-1.4l-1.8-0.7l-1.5-0.6h-1.7h-1.7l-0.8-0.5l-0.4-1l-1.3-1.3l-1.1-0.6c0,0-1.3-0.2-1.8-0.2c-0.5,0-1.3-0.4-1.3-0.4
	l-1.8-0.6l-1.4-1.2l-1.4-0.7l-0.8-0.4l-1.8-0.1l-1.3,0.2l-1,0.4l-0.5-1l-0.4-1.2l-0.7-1l-2-0.4l-1.1,0.1l-1.8,0.5l-1.8,1.3l-2.1,1.1
	l-1.8,1.2l-1.7,0.8l-1.2,1l0.1-1.7c0,0,0.2-1.8-0.1-2.1c-0.4-0.4-0.8-1.8-0.8-1.8l-0.8-1.3l-0.2-2.4l0.2-1.1l0.2-2v-2.6l-0.5-1.4
	l-0.4-2.4l0.6-1.2l0.4-1.5l-0.6-1.9L185.3,164.5z"/>
<path fill="#411B07" stroke="#FFFFFF" stroke-miterlimit="10" d="M241.4,152.5l1.2,0.8l1.4,0.4l1.5,1l1.7,1l1.9,1.9l0.5,0.4
	l-0.6,0.8l-1.9,2.6l-1.4,1.5l-1.2,1.8l-1,0.1l-1.2-0.2l-0.7-0.8l-0.7-0.8l-0.5-1.1l0.1-1.1l1.1-0.1l0.6-1.5l0.1-2.3l-0.1-1.7l-0.6-1
	l-0.7-0.8v-1L241.4,152.5z"/>
<path fill="#411B07" stroke="#FFFFFF" stroke-miterlimit="10" d="M240.5,150.8l1.1,0.6l1.3,0.8l1.3,0.5l1.4,0.7l0.8,0.6l1.1,0.6
	l1.3,1l1.1,0.7l1.1,0.4l1.1-1l1.8-1.4l1.5-1.9l1.2-1.4l0.8-0.8l0.5-1.4l0.2-1l-1.8-0.5l-1.5,0.2l-1.1,0.4l-0.6,1.7l-1.3,0.7
	l-1.7,0.2h-1.9h-1.8l-1.1-0.5l-1.2-0.7l-0.7-0.6h-0.9l-1.1,0.6l-0.6,0.8L240.5,150.8z"/>
<path fill="#411B07" stroke="#FFFFFF" stroke-miterlimit="10" d="M215.5,108h0.9l1.4,0.5l0.4,0.6l-0.6,0.8l-0.2,1l0.1,1l0.8,1.3
	l0.6,1.4l0.7,1.3v1.3l0.4,1.4v2.7l0.5,4.2l0.1,1.8l0.2,1.3l0.5,2.4l0.5,1.3l0.4,1l1.2,0.8l0.4,1.1c0,0-0.2,0.7-0.6,0.8
	c-0.4,0.1-0.8,1.3-0.8,1.3l0.1,1.7l0.5,1.3l0.2,1.2l-0.5,1.4l-2,1.2l-2,1.5l-1.4,1.3l-1.5,1.7l-1.7,1l-1.7,0.1l-1.1,0.7l-1.2,0.4
	h-1.4l-0.9-0.1l-1.4-0.5l-1.8-0.4l-1,0.1l-0.6,0.7l-0.8,1L202,153v1.2l-0.4,1.4l-0.7,1l-0.9,1l-1.3,0.4l-1.3,0.7l-1.3,0.7l-1.3,0.5
	c0,0-0.5-0.4-1.2-0.5c-0.7-0.1-0.7-0.1-0.7-0.1l-0.8-1.1l-0.5-0.8l-0.7-0.5h-1.5l-0.1-1.8l-0.1-1.5v-1.7l-0.4-1.3l-0.2-1.9l0.6-1.5
	l0.7-1.3l0.8-1.9l0.5-1.9l0.4-1.3l0.7-0.7l0.9-0.7l1.1-0.4l1.3-0.5l1.5-0.6l1.5-1.4l1.2-1.3l1.1-0.8l1.5-0.2l1.2-0.1l1.3,0.2h1.3
	l1.4-0.6l0.8-1.5l0.1-1.7l-0.4-1l-0.6-1.1l0.2-1.5l0.2-1.2l0.5-1l0.7-1l-0.4-1.2l-0.1-1.8l-0.2-2.1V117l0.2-1.5l0.7-1.2l1-1.7
	l1.2-0.4l2.5-1.4l1.1-1.4L215.5,108z"/>
<path fill="#411B07" stroke="#FFFFFF" stroke-miterlimit="10" d="M219.9,108.1l-0.5,1.1l-0.4,1l0.1,1.3l0.1,0.6l0.5,0.8l0.5,1
	l0.4,0.7v1.2l0.6,1.2l0.1,1.3v1.9l0.1,1.3l0.1,2l0.2,2l0.1,2l0.2,1.5c0,0,0.1,0.7,0.2,1.3c0.1,0.6,0.8,1.9,0.8,1.9l1.2,0.6l0.5,0.8
	l-0.2,1.4c0,0,0.1,0.5-0.2,0.8c-0.4,0.4-0.2,1.2-0.2,1.2l1.3,0.1l1.7-0.1l1.5-0.1h1.3l1.1,0.4l1.3,0.8l1.1,1.3l1-0.1l1.2-1.2
	l0.7-0.8l-0.4-1.1l-0.4-0.8v-1.5l0.7-1.5l0.2-1.8l1.2-2l1.7-2l1.2-2l1.1-1.9l0.9-1.8l1.7-1.1l-3.1-2.7l-2.6-2l-0.7-1.1
	c0,0-1.1-0.7-1.4-0.7c-0.4,0-1.5-0.7-1.5-0.7l-1.7-1.2l-1.8-1.2l-1.8-1l-1.8-1H226h-2.5h-1.2L219.9,108.1z"/>
<path fill="#411B07" stroke="#FFFFFF" stroke-miterlimit="10" d="M244.3,121.2h1.1l1.5,0.6l1.4,0.7l1.9,0.1h2.3h1.9l1.7,0.2l1.3,0.7
	l0.8,1.1v0.8l0.7,1.8v1.3l0.2,1.9l-0.4,0.7h-2h-2.4l-1.5-0.6l-1.1-0.2l-0.7,0.2l-0.8,0.8l-0.1,1l-0.2,1.1h-1.2l-0.6-0.8l-1.5,0.1
	h-0.6l-0.4-0.8l1-1.7V129l-1.8-0.4l-1.7,0.2l-1,1l-1.7,1c0,0-0.8,0.2-1.2,0.2c-0.4,0-1.2,0.1-1.2-0.2c0-0.4,1.1-1.8,1.1-1.8l0.8-1.4
	l1.8-2.7L244.3,121.2z"/>
<path fill="#411B07" stroke="#FFFFFF" stroke-miterlimit="10" d="M237.4,132.7l-0.6,1.5l0.2,1.1l0.6,1l-0.2,1.4l-0.2,1.1l0.7,0.4
	l1.4,0.1l1.9-0.4l1.5-1.1l1.9-1.2l0.7-0.1l1.9,0.4l0.2,1.2l-0.5,0.6l-0.6,2v0.8l0.4,0.5l1.1,0.2l0.8-1.1l1.5-1.1h1.1l2.3-0.4
	l1.9-0.5l1.4-1.3l0.9-0.7l1.1-0.2h2v-1.2c0,0,0.1-1.4-0.2-1.5c-0.4-0.1-0.7-1.3-0.7-1.3l-0.6-0.5l-2.9-0.5h-1.9l-1.7-0.1h-1.4
	l-0.6,1.2l-1,1.3l-1.4,0.2l-1.1-0.8l-1.2,0.1l-0.8,0.5l-0.8-0.7l-0.8-1.2l0.6-1.8l0.8-1.2h-1.1l-1.3,0.7l-0.6,1l-1.1,0.5l-0.7,0.1
	l-1.7,0.1L237.4,132.7z"/>
<path fill="#411B07" stroke="#FFFFFF" stroke-miterlimit="10" d="M220.7,145.9l1.3,1.1l0.5,1l0.1,0.8l0.6,1v0.5l0.4,0.6l0.8-0.5
	l0.7-0.8l0.7-1.2h1.2l0.7-1.1l1.1-1l1.5-1l1.2-0.4l1.2,0.2l1.3,0.5l1.3,0.2l1.2,1l1.5,0.8l0.8,1.1l1.3-0.1l1.3-1l1-0.6l1.1,0.7
	l1.3,0.8l1.2,0.4l1.4,0.6l2.3-0.1l1.9-0.1l0.4-0.7l0.8-1.3l0.8-0.6l1.2-0.4h1.3h1.3h1.3l0.5-0.8l0.5-1.3l0.5-1.5l0.7-2.3v-1.7
	l-1-0.6l-1.4-0.1l-0.9,0.6l-0.8,0.7l-1.1,0.6l-1,0.5l-1.5,0.2H252l-1.1,0.5l-1.3,0.6l-0.6,0.8l-0.8,1l-1.4,0.1l-0.8-0.7l-0.4-1.3
	v-1.3l0.2-1.7l0.1-0.6l-0.6-0.2l-1.1,0.2l-1.1,0.7l-1.4,1.1l-1.1,0.6l-1.9-0.1H238h-1.1h-1.7l-1.5,0.1l-1.3-0.1l-1.1-1.3l-1.3-0.7
	h-1.1l-2.3-0.2l-3.1-0.1l0.2,1l0.1,0.8l0.5,1.3v0.6l-0.6,1.1l-0.8,1l-1.1,1L220.7,145.9z"/>
<path fill="#411B07" stroke="#FFFFFF" stroke-miterlimit="10" d="M158.6,98.9l0.7-0.5l0.9-0.2l0.6,0.2l0.7,0.4l0.8-0.5l0.7-0.7
	l0.8-0.5l0.8,0.4l0.6-0.4l1.1-1l1.3-0.1l1.1-1.5l1-1.4l0.2-1.2l0.4-1.2l-1.9-0.1l-1.3-0.2h-1.7l-0.8,0.1H163l-1.1-0.4l-1.4-0.5
	l-1.2,0.2l-0.5,1.3l-0.1,1.1l-0.1,1.3c0,0,0.2,1.3,0,1.7c-0.2,0.4-0.4,1.9-0.4,1.9l-0.1,1.7L158.6,98.9z"/>
<path fill="#411B07" stroke="#FFFFFF" stroke-miterlimit="10" d="M163.5,88.9l1.2-0.8l-0.5-1.1l-0.9,0.1l-0.7,1.2L163.5,88.9z"/>
<path fill="#411B07" stroke="#FFFFFF" stroke-miterlimit="10" d="M162.4,85.5l-0.6,1.5l-0.1,0.8c0,0-0.7-0.2-1.1-0.2
	c-0.4,0-1.8-0.2-1.8-0.2l0.6-1.1l1.1-1.3L162.4,85.5z"/>
<path fill="#411B07" stroke="#FFFFFF" stroke-miterlimit="10" d="M155.3,89.7l-1.3,1.4l-0.2-1.4l0.4-1.5l1.3-0.7h1.2v0.7l-0.5,1.1
	L155.3,89.7z"/>
<path fill="#411B07" stroke="#FFFFFF" stroke-miterlimit="10" d="M151.7,93.4l-1.1,1.2l-1,1.5l-1.1,0.6l0.7-1.9l1.1-1.9l0.8-0.5
	L151.7,93.4z"/>
<path fill="#411B07" stroke="#FFFFFF" stroke-miterlimit="10" d="M156,93.1l-0.8,0.2l-0.5,0.6l0.7,0.2l0.7,0.4l1.3-0.7l-0.8-1
	L156,93.1z"/>
<path fill="#411B07" stroke="#FFFFFF" stroke-miterlimit="10" d="M156.5,90.7h1l0.1-1.4l-0.8,0.4L156.5,90.7z"/>
<path fill="#411B07" stroke="#FFFFFF" stroke-miterlimit="10" d="M157.1,96.5l-0.1,1h-1.1l-0.1-1.1l0.1-0.7h0.7L157.1,96.5z"/>
<g>
	<linearGradient id="SVGID_1_" gradientUnits="userSpaceOnUse" x1="174.9856" y1="26.1117" x2="174.9856" y2="1.6092">
		<stop  offset="0.3069" style="stop-color:#391D12"/>
		<stop  offset="0.7277" style="stop-color:#614438"/>
	</linearGradient>
	<path fill="url(#SVGID_1_)" d="M169.4,1.6h17.1l-1.1,4.7h-10.1l-1.3,5.2h7.3l-1.1,4.4h-7.3l-1.3,5.6h10.9l-1.1,4.6h-17.8L169.4,1.6
		z"/>
	<linearGradient id="SVGID_2_" gradientUnits="userSpaceOnUse" x1="193.8686" y1="26.1117" x2="193.8686" y2="7.3846">
		<stop  offset="0.3069" style="stop-color:#391D12"/>
		<stop  offset="0.7277" style="stop-color:#614438"/>
	</linearGradient>
	<path fill="url(#SVGID_2_)" d="M187.6,7.7h2.6c2.1,0,2.9,0.9,3,2.6c2-1.7,4.1-2.9,7.1-2.9c3,0,5,2.1,4,6.3l-3,12.5h-4.5
		c-1.3,0-1.8-0.6-1.3-2.6l2.1-9.2c0.3-1.4-0.1-2-1.4-2c-1.1,0-2.1,0.4-3.5,1.1l-3,12.7h-6.5L187.6,7.7z"/>
	<linearGradient id="SVGID_3_" gradientUnits="userSpaceOnUse" x1="213.8655" y1="26.3919" x2="213.8655" y2="7.3846">
		<stop  offset="0.3069" style="stop-color:#391D12"/>
		<stop  offset="0.7277" style="stop-color:#614438"/>
	</linearGradient>
	<path fill="url(#SVGID_3_)" d="M204.9,18.8c0-6.9,5.2-11.4,12-11.4c2.7,0,4.6,0.6,5.9,1.5l-0.9,3.9h-2.3c-0.5-0.6-1.3-1-2.7-1
		c-3.3,0-5.5,3-5.5,6.8c0,2.3,1.1,3.5,3.3,3.5c1.5,0,2.5-0.5,3.3-1.1h2.3l-1,4c-1.1,0.7-3,1.3-5.5,1.3
		C207.8,26.4,204.9,23.4,204.9,18.8z"/>
	<linearGradient id="SVGID_4_" gradientUnits="userSpaceOnUse" x1="231.6064" y1="26.3568" x2="231.6064" y2="7.3846">
		<stop  offset="0.3069" style="stop-color:#391D12"/>
		<stop  offset="0.7277" style="stop-color:#614438"/>
	</linearGradient>
	<path fill="url(#SVGID_4_)" d="M221.7,18.6c0-6.5,4.6-11.2,10.9-11.2c5.5,0,8.8,3.1,8.8,7.9c0,6.5-4.4,11-10.9,11
		C225,26.4,221.7,23.4,221.7,18.6z M235,15.1c0-2.4-1-3.4-2.6-3.4c-2.7,0-4.4,3.9-4.4,7.3c0,2.3,1,3.3,2.7,3.3
		C233.6,22.3,235,18.6,235,15.1z"/>
	<linearGradient id="SVGID_5_" gradientUnits="userSpaceOnUse" x1="251.453" y1="26.1117" x2="251.453" y2="7.3846">
		<stop  offset="0.3069" style="stop-color:#391D12"/>
		<stop  offset="0.7277" style="stop-color:#614438"/>
	</linearGradient>
	<path fill="url(#SVGID_5_)" d="M245.1,7.7h2.6c2.1,0,2.9,0.9,3,2.6c2-1.7,4.1-2.9,7.1-2.9c3,0,5,2.1,4,6.3l-3,12.5h-4.5
		c-1.3,0-1.8-0.6-1.3-2.6l2.1-9.2c0.3-1.4-0.1-2-1.4-2c-1.1,0-2.1,0.4-3.5,1.1l-3,12.7h-6.5L245.1,7.7z"/>
	<linearGradient id="SVGID_6_" gradientUnits="userSpaceOnUse" x1="269.4847" y1="26.4266" x2="269.4847" y2="2.9744">
		<stop  offset="0.3069" style="stop-color:#391D12"/>
		<stop  offset="0.7277" style="stop-color:#614438"/>
	</linearGradient>
	<path fill="url(#SVGID_6_)" d="M263.3,20.2l2-8.5h-2l0.9-4.1h2l1.1-4.7h6.5l-1.1,4.7h3.2l-0.9,4.1h-3.2l-2,8.3
		c-0.4,1.5,0.1,2.3,1.9,2.3h0.9l-0.8,3.6c-0.8,0.2-1.9,0.5-3.4,0.5C264.3,26.4,262.2,24.5,263.3,20.2z"/>
	<linearGradient id="SVGID_7_" gradientUnits="userSpaceOnUse" x1="281.7378" y1="26.1117" x2="281.7378" y2="7.5247">
		<stop  offset="0.3069" style="stop-color:#391D12"/>
		<stop  offset="0.7277" style="stop-color:#614438"/>
	</linearGradient>
	<path fill="url(#SVGID_7_)" d="M277.8,7.7h2.6c2.3,0,3.2,1.1,3,3.2c1.6-2.1,3.5-3.4,5.7-3.4c0.4,0,0.8,0.1,1.1,0.1l-1.2,5.3h-0.7
		c-2.4,0-4.3,0.7-5.5,1.4l-2.8,11.8h-6.5L277.8,7.7z"/>
	<linearGradient id="SVGID_8_" gradientUnits="userSpaceOnUse" x1="297.5701" y1="26.3919" x2="297.5701" y2="7.3846">
		<stop  offset="0.3069" style="stop-color:#391D12"/>
		<stop  offset="0.7277" style="stop-color:#614438"/>
	</linearGradient>
	<path fill="url(#SVGID_8_)" d="M288.4,18.8c0-6.2,4.1-11.4,10.8-11.4c4.6,0,7.5,2.4,7.5,6.9c0,1.3-0.2,2.6-0.7,4h-11.2v0.4
		c0,2.6,1.1,3.6,3.5,3.6c1.7,0,3.2-0.5,4.5-1.2h2.1L304,25c-1.5,0.8-3.6,1.4-6.6,1.4C291.6,26.4,288.4,23.8,288.4,18.8z M295.2,15
		h5.6c0.1-0.4,0.1-0.8,0.1-1.2c0-1.7-0.8-2.5-2.2-2.5C297.1,11.3,295.9,12.8,295.2,15z"/>
</g>
<g>
	<g>
		<path fill="#49281B" stroke="#49281A" stroke-miterlimit="10" d="M165.9,33.1h0.4c0.7,0,0.8,0.5,0.6,1.3l-0.3,1.2
			c1.8-1.4,4-2.7,6.3-2.7c1.9,0,3.1,1.3,2.5,4l-2.2,9.4h-0.6c-0.5,0-0.6-0.2-0.5-0.8l2-8.6c0.5-2.1-0.2-2.9-1.7-2.9
			c-1.9,0-4,1.2-6.1,2.8l-2.2,9.4h-1.3L165.9,33.1z"/>
		<path fill="#49281B" stroke="#49281A" stroke-miterlimit="10" d="M176.6,41.2c0-4.5,3.1-8.3,7.3-8.3c3.2,0,5.2,2,5.2,5.2
			c0,4.5-2.9,8.3-7.2,8.3C178.6,46.4,176.6,44.5,176.6,41.2z M187.8,38.1c0-2.7-1.4-4.2-3.9-4.2c-3.5,0-6,3.3-6,7.3
			c0,2.8,1.5,4.2,4,4.2C185.5,45.4,187.8,41.9,187.8,38.1z"/>
		<path fill="#49281B" stroke="#49281A" stroke-miterlimit="10" d="M188.5,44.9l0.2-0.9h0.6c0.5,0.6,1.7,1.4,3.4,1.4
			c2.7,0,3.8-1.3,3.8-3c0-1.3-0.9-1.8-2.7-2.4c-2.1-0.7-3.4-1.3-3.4-3.2c0-2.3,1.7-3.8,4.7-3.8c1.9,0,3.2,0.6,3.8,1.2l-0.2,1h-0.5
			c-0.6-0.6-1.5-1.2-3.1-1.2c-2.3,0-3.4,1.1-3.4,2.7c0,1.3,0.9,1.8,2.7,2.3c2.1,0.6,3.4,1.3,3.4,3.3c0,2.3-1.6,4.2-5.1,4.2
			C190.7,46.4,189.2,45.6,188.5,44.9z"/>
		<path fill="#49281B" stroke="#49281A" stroke-miterlimit="10" d="M198.2,44.9l0.2-0.9h0.6c0.5,0.6,1.7,1.4,3.4,1.4
			c2.7,0,3.8-1.3,3.8-3c0-1.3-0.9-1.8-2.7-2.4c-2.1-0.7-3.4-1.3-3.4-3.2c0-2.3,1.7-3.8,4.7-3.8c1.9,0,3.2,0.6,3.8,1.2l-0.2,1h-0.5
			c-0.6-0.6-1.5-1.2-3.1-1.2c-2.3,0-3.4,1.1-3.4,2.7c0,1.3,0.9,1.8,2.7,2.3c2.1,0.6,3.4,1.3,3.4,3.3c0,2.3-1.6,4.2-5.1,4.2
			C200.3,46.4,198.9,45.6,198.2,44.9z"/>
		<path fill="#49281B" stroke="#49281A" stroke-miterlimit="10" d="M209.2,41.2c0-4.5,3.1-8.3,7.3-8.3c3.2,0,5.2,2,5.2,5.2
			c0,4.5-2.9,8.3-7.2,8.3C211.1,46.4,209.2,44.5,209.2,41.2z M220.3,38.1c0-2.7-1.4-4.2-3.9-4.2c-3.5,0-6,3.3-6,7.3
			c0,2.8,1.5,4.2,4,4.2C218,45.4,220.3,41.9,220.3,38.1z"/>
		<path fill="#49281B" stroke="#49281A" stroke-miterlimit="10" d="M221.1,44.9l0.2-0.9h0.6c0.5,0.6,1.7,1.4,3.4,1.4
			c2.7,0,3.8-1.3,3.8-3c0-1.3-0.9-1.8-2.7-2.4c-2.1-0.7-3.4-1.3-3.4-3.2c0-2.3,1.7-3.8,4.7-3.8c1.9,0,3.2,0.6,3.8,1.2l-0.2,1h-0.5
			c-0.6-0.6-1.5-1.2-3.1-1.2c-2.3,0-3.4,1.1-3.4,2.7c0,1.3,0.9,1.8,2.7,2.3c2.1,0.6,3.4,1.3,3.4,3.3c0,2.3-1.6,4.2-5.1,4.2
			C223.2,46.4,221.8,45.6,221.1,44.9z"/>
		<path fill="#49281B" stroke="#49281A" stroke-miterlimit="10" d="M240,33.1h0.4c0.7,0,0.8,0.5,0.6,1.3l-0.3,1.2
			c1.4-1.4,3.3-2.7,5.5-2.7c2.1,0,3.7,1.3,3.7,4.5c0,4.7-2.7,8.9-7.3,8.9c-2.2,0-3.4-0.8-4.1-1.6l-1.3,5.6h-1.3L240,33.1z
			 M240.4,36.9l-1.6,6.8c0.6,0.8,1.6,1.6,3.7,1.6c4,0,6.1-3.8,6.1-7.9c0-2.6-1.3-3.4-2.9-3.4C243.6,34,241.9,35.4,240.4,36.9z"/>
		<path fill="#49281B" stroke="#49281A" stroke-miterlimit="10" d="M253.4,33.1h0.4c0.7,0,0.8,0.5,0.6,1.3l-0.3,1.2
			c1.3-1.4,2.9-2.6,4.7-2.6c0.3,0,0.5,0.1,0.6,0.1l-0.2,1c0,0-0.3,0-0.5,0c-1.9,0-3.5,1.3-5,3l-2.2,9.2h-1.3L253.4,33.1z"/>
		<path fill="#49281B" stroke="#49281A" stroke-miterlimit="10" d="M258.3,41.2c0-4.5,3.1-8.3,7.3-8.3c3.2,0,5.2,2,5.2,5.2
			c0,4.5-2.9,8.3-7.2,8.3C260.3,46.4,258.3,44.5,258.3,41.2z M269.5,38.1c0-2.7-1.4-4.2-3.9-4.2c-3.5,0-6,3.3-6,7.3
			c0,2.8,1.5,4.2,4,4.2C267.2,45.4,269.5,41.9,269.5,38.1z"/>
		<path fill="#49281B" stroke="#49281A" stroke-miterlimit="10" d="M280.7,45l0.3-1.2c-1.4,1.4-3.2,2.6-5.3,2.6
			c-2.1,0-3.8-1.3-3.8-4.5c0-4.5,3.1-9,7.6-9c2.1,0,3.1,0.8,3.8,1.6l1.4-6h0.4c0.7,0,0.8,0.2,0.6,1.1l-3.9,16.6h-0.3
			C280.7,46.3,280.6,45.8,280.7,45z M281.3,42.5l1.6-6.9c-0.7-0.8-1.6-1.6-3.4-1.6c-4.1,0-6.4,4.1-6.4,8c0,2.5,1.1,3.5,2.9,3.5
			C278.1,45.4,279.8,44,281.3,42.5z"/>
		<path fill="#49281B" stroke="#49281A" stroke-miterlimit="10" d="M293.9,44.9l0.2-1.1c-1.7,1.4-3.7,2.6-5.9,2.6
			c-2,0-3.3-1.3-2.7-4l2.2-9.4h0.7c0.5,0,0.6,0.2,0.4,0.7l-2,8.6c-0.5,2.1,0.3,3,1.7,3c1.9,0,3.8-1.2,5.8-2.8l2.2-9.5h1.3l-3.1,13.2
			h-0.3C293.8,46.3,293.7,45.9,293.9,44.9z"/>
		<path fill="#49281B" stroke="#49281A" stroke-miterlimit="10" d="M299.1,42.8l2-8.7h-1.7l0.2-1h1.7l0.8-3.7h1.3l-0.8,3.7h3.3
			l-0.3,1h-3.3l-2.1,8.8c-0.4,1.8,0.2,2.5,1.7,2.5h1.5l-0.2,0.9c-0.4,0.1-1.1,0.2-1.7,0.2C299.4,46.4,298.6,45.1,299.1,42.8z"/>
		<path fill="#49281B" stroke="#49281A" stroke-miterlimit="10" d="M305.2,41.2c0-4.5,3.1-8.3,7.3-8.3c3.2,0,5.2,2,5.2,5.2
			c0,4.5-2.9,8.3-7.2,8.3C307.2,46.4,305.2,44.5,305.2,41.2z M316.4,38.1c0-2.7-1.4-4.2-3.9-4.2c-3.5,0-6,3.3-6,7.3
			c0,2.8,1.5,4.2,4,4.2C314.1,45.4,316.4,41.9,316.4,38.1z"/>
		<path fill="#49281B" stroke="#49281A" stroke-miterlimit="10" d="M317.1,44.9l0.2-0.9h0.6c0.5,0.6,1.7,1.4,3.4,1.4
			c2.7,0,3.8-1.3,3.8-3c0-1.3-0.9-1.8-2.7-2.4c-2.1-0.7-3.4-1.3-3.4-3.2c0-2.3,1.7-3.8,4.7-3.8c1.9,0,3.2,0.6,3.8,1.2l-0.2,1h-0.5
			c-0.6-0.6-1.5-1.2-3.1-1.2c-2.3,0-3.4,1.1-3.4,2.7c0,1.3,0.9,1.8,2.7,2.3c2.1,0.6,3.4,1.3,3.4,3.3c0,2.3-1.6,4.2-5.1,4.2
			C319.3,46.4,317.8,45.6,317.1,44.9z"/>
	</g>
</g>
</svg>
