<?xml version="1.0" encoding="utf-8"?>
<!-- Generator: Adobe Illustrator 18.0.0, SVG Export Plug-In . SVG Version: 6.00 Build 0)  -->
<!DOCTYPE svg PUBLIC "-//W3C//DTD SVG 1.1//EN" "http://www.w3.org/Graphics/SVG/1.1/DTD/svg11.dtd">
<svg version="1.1" id="Camada_1" xmlns="http://www.w3.org/2000/svg" xmlns:xlink="http://www.w3.org/1999/xlink" x="0px" y="0px"
	 viewBox="0 0 223.8 47.7" enable-background="new 0 0 223.8 47.7" xml:space="preserve">
<path fill="#321509" d="M66.4,6.5c26.8-1.8,53.7-2.3,80.5-1.3c26.9,0.9,49,4,66.4,9.3c-9.5,1.8-23.2,2.7-41.1,2.5
	c-35.9-2.2-68.6-0.6-98,4.7c-3.6,0.7-10.5,2.3-20.5,4.9c-10,2.6-17.8,4.2-23.3,4.7L25,36.1l44.2-6.8c-6.8,1.9-13.3,4-19.4,6.4
	l-5.5,4.8c0.5,0.2,0.9,0.6,1.4,1.3c0.5,0.7,1,1.2,1.4,1.6c0.4,0.4,0.9,0.7,1.3,0.9c9.6,1.6,17.2,2.5,23,2.6
	c5.8,0.2,13.7,0.2,23.9,0.2c10.1,0,17.9,0.2,23.1,0.5l5.5-4.8c-5.4-0.4-13.2-0.5-23.3-0.4c-10.1,0.1-18,0-23.9-0.1
	C71,42.2,63.4,41.2,54,39.5c-0.8-0.1-1.7-0.7-2.7-1.8c11.5-4,23.5-7,36-8.9c12.5-1.9,27.8-3.3,46-4.3c18.2-1,30.5-1.8,36.9-2.5
	l0.2-0.2c21.1,0,37-1.8,47.9-5.6l5.5-4.8c-16.5-5.8-38.5-9.4-66-10.6c-27.5-1.3-55.3-1-83.3,0.9c-28,1.9-51,4.6-69,8.2L0,14.7
	C17.4,11.1,39.5,8.3,66.4,6.5z"/>
</svg>
